<svg version="1.1" viewBox="0.0 0.0 600.0 371.0" fill="none" stroke="none" stroke-linecap="square" stroke-miterlimit="10" width="600" height="371" xmlns:xlink="http://www.w3.org/1999/xlink" xmlns="http://www.w3.org/2000/svg"><path fill="#ffffff" d="M0 0L600.0 0L600.0 371.0L0 371.0L0 0Z" fill-rule="nonzero"/><path stroke="#cccccc" stroke-width="1.0" stroke-linecap="butt" d="M133.5 88.5L133.5 300.5" fill-rule="nonzero"/><path stroke="#cccccc" stroke-width="1.0" stroke-linecap="butt" d="M245.5 88.5L245.5 300.5" fill-rule="nonzero"/><path stroke="#cccccc" stroke-width="1.0" stroke-linecap="butt" d="M357.5 88.5L357.5 300.5" fill-rule="nonzero"/><path stroke="#cccccc" stroke-width="1.0" stroke-linecap="butt" d="M469.5 88.5L469.5 300.5" fill-rule="nonzero"/><path stroke="#cccccc" stroke-width="1.0" stroke-linecap="butt" d="M581.5 88.5L581.5 300.5" fill-rule="nonzero"/><path stroke="#333333" stroke-width="1.0" stroke-linecap="butt" d="M77.5 300.5L581.5 300.5" fill-rule="nonzero"/><path stroke="#cccccc" stroke-width="1.0" stroke-linecap="butt" d="M77.5 267.5L581.5 267.5" fill-rule="nonzero"/><path stroke="#cccccc" stroke-width="1.0" stroke-linecap="butt" d="M77.5 235.5L581.5 235.5" fill-rule="nonzero"/><path stroke="#cccccc" stroke-width="1.0" stroke-linecap="butt" d="M77.5 202.5L581.5 202.5" fill-rule="nonzero"/><path stroke="#cccccc" stroke-width="1.0" stroke-linecap="butt" d="M77.5 169.5L581.5 169.5" fill-rule="nonzero"/><path stroke="#cccccc" stroke-width="1.0" stroke-linecap="butt" d="M77.5 137.5L581.5 137.5" fill-rule="nonzero"/><path stroke="#cccccc" stroke-width="1.0" stroke-linecap="butt" d="M77.5 104.5L581.5 104.5" fill-rule="nonzero"/><clipPath id="id_0"><path d="M77.55 88.28333L581.45 88.28333L581.45 300.45L77.55 300.45L77.55 88.28333Z" clip-rule="nonzero"/></clipPath><path stroke="#4285f4" stroke-width="2.0" stroke-linecap="butt" clip-path="url(#id_0)" d="M77.55 298.32834L245.51666 266.34012L413.48334 194.20346L581.45 102.15577" fill-rule="nonzero"/><path stroke="#ea4335" stroke-width="2.0" stroke-linecap="butt" clip-path="url(#id_0)" d="M77.55 300.18887L245.51666 296.53308L413.48334 286.57758L581.45 275.96924" fill-rule="nonzero"/><path stroke="#fbbc04" stroke-width="2.0" stroke-linecap="butt" clip-path="url(#id_0)" d="M77.55 300.35208L245.51666 299.63397L413.48334 298.00192L581.45 295.55383" fill-rule="nonzero"/><path fill="#000000" fill-opacity="0.0" clip-path="url(#id_0)" d="M80.55 298.32834C80.55 299.9852 79.206856 301.32834 77.55 301.32834C75.89314 301.32834 74.55 299.9852 74.55 298.32834C74.55 296.67148 75.89314 295.32834 77.55 295.32834C79.206856 295.32834 80.55 296.67148 80.55 298.32834Z" fill-rule="nonzero"/><path fill="#000000" fill-opacity="0.0" clip-path="url(#id_0)" d="M248.51666 266.34012C248.51666 267.99698 247.17352 269.34012 245.51666 269.34012C243.85982 269.34012 242.51666 267.99698 242.51666 266.34012C242.51666 264.6833 243.85982 263.34012 245.51666 263.34012C247.17352 263.34012 248.51666 264.6833 248.51666 266.34012Z" fill-rule="nonzero"/><path fill="#000000" fill-opacity="0.0" clip-path="url(#id_0)" d="M416.48334 194.20346C416.48334 195.86032 415.1402 197.20346 413.48334 197.20346C411.82648 197.20346 410.48334 195.86032 410.48334 194.20346C410.48334 192.5466 411.82648 191.20346 413.48334 191.20346C415.1402 191.20346 416.48334 192.5466 416.48334 194.20346Z" fill-rule="nonzero"/><path fill="#000000" fill-opacity="0.0" clip-path="url(#id_0)" d="M584.45 102.15577C584.45 103.81262 583.1069 105.15577 581.45 105.15577C579.79315 105.15577 578.45 103.81262 578.45 102.15577C578.45 100.49892 579.79315 99.15577 581.45 99.15577C583.1069 99.15577 584.45 100.49892 584.45 102.15577Z" fill-rule="nonzero"/><path fill="#000000" fill-opacity="0.0" clip-path="url(#id_0)" d="M80.55 300.18887C80.55 301.84573 79.206856 303.18887 77.55 303.18887C75.89314 303.18887 74.55 301.84573 74.55 300.18887C74.55 298.532 75.89314 297.18887 77.55 297.18887C79.206856 297.18887 80.55 298.532 80.55 300.18887Z" fill-rule="nonzero"/><path fill="#000000" fill-opacity="0.0" clip-path="url(#id_0)" d="M248.51666 296.53308C248.51666 298.18994 247.17352 299.53308 245.51666 299.53308C243.85982 299.53308 242.51666 298.18994 242.51666 296.53308C242.51666 294.87622 243.85982 293.53308 245.51666 293.53308C247.17352 293.53308 248.51666 294.87622 248.51666 296.53308Z" fill-rule="nonzero"/><path fill="#000000" fill-opacity="0.0" clip-path="url(#id_0)" d="M416.48334 286.57758C416.48334 288.2344 415.1402 289.57758 413.48334 289.57758C411.82648 289.57758 410.48334 288.2344 410.48334 286.57758C410.48334 284.92072 411.82648 283.57758 413.48334 283.57758C415.1402 283.57758 416.48334 284.92072 416.48334 286.57758Z" fill-rule="nonzero"/><path fill="#000000" fill-opacity="0.0" clip-path="url(#id_0)" d="M584.45 275.96924C584.45 277.6261 583.1069 278.96924 581.45 278.96924C579.79315 278.96924 578.45 277.6261 578.45 275.96924C578.45 274.31238 579.79315 272.96924 581.45 272.96924C583.1069 272.96924 584.45 274.31238 584.45 275.96924Z" fill-rule="nonzero"/><path fill="#000000" fill-opacity="0.0" clip-path="url(#id_0)" d="M80.55 300.35208C80.55 302.00894 79.206856 303.35208 77.55 303.35208C75.89314 303.35208 74.55 302.00894 74.55 300.35208C74.55 298.69522 75.89314 297.35208 77.55 297.35208C79.206856 297.35208 80.55 298.69522 80.55 300.35208Z" fill-rule="nonzero"/><path fill="#000000" fill-opacity="0.0" clip-path="url(#id_0)" d="M248.51666 299.63397C248.51666 301.29083 247.17352 302.63397 245.51666 302.63397C243.85982 302.63397 242.51666 301.29083 242.51666 299.63397C242.51666 297.9771 243.85982 296.63397 245.51666 296.63397C247.17352 296.63397 248.51666 297.9771 248.51666 299.63397Z" fill-rule="nonzero"/><path fill="#000000" fill-opacity="0.0" clip-path="url(#id_0)" d="M416.48334 298.00192C416.48334 299.65878 415.1402 301.00192 413.48334 301.00192C411.82648 301.00192 410.48334 299.65878 410.48334 298.00192C410.48334 296.34506 411.82648 295.00192 413.48334 295.00192C415.1402 295.00192 416.48334 296.34506 416.48334 298.00192Z" fill-rule="nonzero"/><path fill="#000000" fill-opacity="0.0" clip-path="url(#id_0)" d="M584.45 295.55383C584.45 297.2107 583.1069 298.55383 581.45 298.55383C579.79315 298.55383 578.45 297.2107 578.45 295.55383C578.45 293.897 579.79315 292.55383 581.45 292.55383C583.1069 292.55383 584.45 293.897 584.45 295.55383Z" fill-rule="nonzero"/><path fill="#000000" d="M283.95312 346.075L283.95312 345.075L287.57812 345.0594L287.57812 348.2469Q286.75 348.91876 285.85938 349.2625Q284.96875 349.59064 284.03125 349.59064Q282.76562 349.59064 281.71875 349.0594Q280.6875 348.5125 280.15625 347.4969Q279.64062 346.46564 279.64062 345.2Q279.64062 343.9344 280.15625 342.85626Q280.6875 341.7625 281.67188 341.2469Q282.65625 340.71564 283.9375 340.71564Q284.875 340.71564 285.625 341.0125Q286.375 341.3094 286.79688 341.85626Q287.23438 342.3875 287.45312 343.2625L286.4375 343.54376Q286.23438 342.8875 285.9375 342.5125Q285.65625 342.1375 285.125 341.91876Q284.59375 341.6844 283.95312 341.6844Q283.17188 341.6844 282.59375 341.91876Q282.03125 342.15314 281.67188 342.54376Q281.32812 342.9344 281.14062 343.40314Q280.8125 344.2 280.8125 345.1219Q280.8125 346.27814 281.20312 347.0594Q281.60938 347.825 282.35938 348.2Q283.10938 348.575 283.96875 348.575Q284.70312 348.575 285.40625 348.29376Q286.10938 347.9969 286.46875 347.6844L286.46875 346.075L283.95312 346.075ZM288.78125 349.45L288.78125 343.23126L289.73438 343.23126L289.73438 344.16876Q290.09375 343.5125 290.39062 343.3094Q290.70312 343.09064 291.07812 343.09064Q291.60938 343.09064 292.15625 343.41876L291.79688 344.40314Q291.40625 344.16876 291.03125 344.16876Q290.67188 344.16876 290.39062 344.3875Q290.125 344.59064 290.01562 344.96564Q289.82812 345.52814 289.82812 346.1844L289.82812 349.45L288.78125 349.45ZM292.79688 342.075L292.79688 340.85626L293.85938 340.85626L293.85938 342.075L292.79688 342.075ZM292.79688 349.45L292.79688 343.23126L293.85938 343.23126L293.85938 349.45L292.79688 349.45ZM299.82812 349.45L299.82812 348.66876Q299.23438 349.59064 298.09375 349.59064Q297.34375 349.59064 296.71875 349.1844Q296.09375 348.7625 295.75 348.02814Q295.40625 347.29376 295.40625 346.34064Q295.40625 345.41876 295.71875 344.65314Q296.03125 343.8875 296.65625 343.4969Q297.28125 343.09064 298.04688 343.09064Q298.60938 343.09064 299.04688 343.325Q299.48438 343.5594 299.76562 343.9344L299.76562 340.85626L300.8125 340.85626L300.8125 349.45L299.82812 349.45ZM296.5 346.34064Q296.5 347.54376 297.0 348.1375Q297.5 348.71564 298.1875 348.71564Q298.875 348.71564 299.35938 348.15314Q299.84375 347.59064 299.84375 346.4344Q299.84375 345.15314 299.34375 344.5594Q298.85938 343.96564 298.14062 343.96564Q297.4375 343.96564 296.96875 344.54376Q296.5 345.10626 296.5 346.34064ZM305.40625 346.34064Q305.40625 344.60626 306.35938 343.77814Q307.15625 343.09064 308.3125 343.09064Q309.59375 343.09064 310.40625 343.9344Q311.23438 344.7625 311.23438 346.2469Q311.23438 347.45 310.875 348.1375Q310.51562 348.825 309.8125 349.21564Q309.125 349.59064 308.3125 349.59064Q307.01562 349.59064 306.20312 348.7625Q305.40625 347.91876 305.40625 346.34064ZM306.48438 346.34064Q306.48438 347.52814 307.0 348.1219Q307.53125 348.71564 308.3125 348.71564Q309.10938 348.71564 309.625 348.1219Q310.14062 347.52814 310.14062 346.3094Q310.14062 345.15314 309.60938 344.5594Q309.09375 343.96564 308.3125 343.96564Q307.53125 343.96564 307.0 344.5594Q306.48438 345.1375 306.48438 346.34064ZM313.04688 349.45L313.04688 344.04376L312.10938 344.04376L312.10938 343.23126L313.04688 343.23126L313.04688 342.5594Q313.04688 341.9344 313.15625 341.6375Q313.3125 341.21564 313.6875 340.96564Q314.07812 340.71564 314.76562 340.71564Q315.21875 340.71564 315.75 340.825L315.59375 341.73126Q315.26562 341.6844 314.96875 341.6844Q314.48438 341.6844 314.28125 341.8875Q314.09375 342.09064 314.09375 342.65314L314.09375 343.23126L315.3125 343.23126L315.3125 344.04376L314.09375 344.04376L314.09375 349.45L313.04688 349.45ZM318.79688 351.84064L318.79688 343.23126L319.75 343.23126L319.75 344.02814Q320.09375 343.5594 320.51562 343.325Q320.95312 343.09064 321.5625 343.09064Q322.35938 343.09064 322.96875 343.4969Q323.57812 343.90314 323.875 344.65314Q324.1875 345.40314 324.1875 346.29376Q324.1875 347.2469 323.84375 348.0125Q323.51562 348.77814 322.85938 349.1844Q322.20312 349.59064 321.48438 349.59064Q320.95312 349.59064 320.53125 349.3719Q320.10938 349.1375 319.84375 348.8094L319.84375 351.84064L318.79688 351.84064ZM319.75 346.3719Q319.75 347.575 320.23438 348.15314Q320.71875 348.71564 321.40625 348.71564Q322.10938 348.71564 322.60938 348.1219Q323.10938 347.52814 323.10938 346.27814Q323.10938 345.09064 322.625 344.5125Q322.14062 343.91876 321.45312 343.91876Q320.78125 343.91876 320.26562 344.54376Q319.75 345.16876 319.75 346.3719ZM325.76562 349.45L325.76562 340.85626L326.82812 340.85626L326.82812 349.45L325.76562 349.45ZM332.85938 348.6844Q332.26562 349.1844 331.71875 349.3875Q331.1875 349.59064 330.5625 349.59064Q329.53125 349.59064 328.98438 349.09064Q328.4375 348.59064 328.4375 347.8094Q328.4375 347.35626 328.64062 346.98126Q328.84375 346.59064 329.1875 346.3719Q329.53125 346.1375 329.95312 346.02814Q330.25 345.9344 330.89062 345.85626Q332.15625 345.71564 332.76562 345.4969Q332.76562 345.27814 332.76562 345.23126Q332.76562 344.575 332.46875 344.3094Q332.0625 343.96564 331.26562 343.96564Q330.53125 343.96564 330.17188 344.23126Q329.8125 344.48126 329.64062 345.1375L328.60938 344.9969Q328.75 344.34064 329.07812 343.9344Q329.40625 343.52814 330.01562 343.3094Q330.625 343.09064 331.42188 343.09064Q332.21875 343.09064 332.71875 343.27814Q333.21875 343.46564 333.45312 343.7469Q333.6875 344.02814 333.78125 344.46564Q333.82812 344.73126 333.82812 345.4344L333.82812 346.84064Q333.82812 348.3094 333.89062 348.7Q333.96875 349.09064 334.17188 349.45L333.0625 349.45Q332.90625 349.1219 332.85938 348.6844ZM332.76562 346.325Q332.1875 346.5594 331.04688 346.73126Q330.39062 346.825 330.125 346.95Q329.85938 347.0594 329.70312 347.27814Q329.5625 347.4969 329.5625 347.77814Q329.5625 348.2 329.875 348.48126Q330.20312 348.7625 330.8125 348.7625Q331.42188 348.7625 331.89062 348.4969Q332.375 348.23126 332.59375 347.7625Q332.76562 347.40314 332.76562 346.71564L332.76562 346.325ZM335.79688 349.45L335.79688 343.23126L336.73438 343.23126L336.73438 344.10626Q337.42188 343.09064 338.71875 343.09064Q339.28125 343.09064 339.75 343.29376Q340.23438 343.4969 340.46875 343.825Q340.70312 344.15314 340.79688 344.59064Q340.84375 344.8875 340.84375 345.6219L340.84375 349.45L339.79688 349.45L339.79688 345.66876Q339.79688 345.0125 339.67188 344.7Q339.54688 344.3875 339.23438 344.2Q338.92188 343.9969 338.5 343.9969Q337.82812 343.9969 337.32812 344.4344Q336.84375 344.85626 336.84375 346.04376L336.84375 349.45L335.79688 349.45ZM347.04688 347.45L348.14062 347.575Q347.89062 348.52814 347.1875 349.0594Q346.48438 349.59064 345.40625 349.59064Q344.04688 349.59064 343.23438 348.7469Q342.4375 347.90314 342.4375 346.3875Q342.4375 344.825 343.25 343.96564Q344.0625 343.09064 345.34375 343.09064Q346.59375 343.09064 347.375 343.9344Q348.17188 344.77814 348.17188 346.325Q348.17188 346.41876 348.17188 346.60626L343.53125 346.60626Q343.59375 347.6375 344.10938 348.1844Q344.625 348.71564 345.40625 348.71564Q345.98438 348.71564 346.39062 348.41876Q346.8125 348.10626 347.04688 347.45ZM343.59375 345.7469L347.0625 345.7469Q347.0 344.95 346.67188 344.5594Q346.15625 343.95 345.35938 343.95Q344.625 343.95 344.125 344.4344Q343.64062 344.91876 343.59375 345.7469ZM349.375 347.59064L350.40625 347.4344Q350.5 348.0594 350.89062 348.3875Q351.29688 348.71564 352.03125 348.71564Q352.75 348.71564 353.09375 348.4344Q353.45312 348.1375 353.45312 347.73126Q353.45312 347.3719 353.14062 347.16876Q352.92188 347.02814 352.0625 346.8094Q350.90625 346.5125 350.45312 346.3094Q350.01562 346.09064 349.78125 345.71564Q349.54688 345.34064 349.54688 344.8719Q349.54688 344.46564 349.73438 344.10626Q349.92188 343.7469 350.25 343.5125Q350.5 343.34064 350.92188 343.21564Q351.34375 343.09064 351.84375 343.09064Q352.5625 343.09064 353.10938 343.3094Q353.67188 343.5125 353.9375 343.8719Q354.20312 344.23126 354.29688 344.825L353.26562 344.96564Q353.20312 344.4969 352.85938 344.23126Q352.53125 343.95 351.90625 343.95Q351.1875 343.95 350.875 344.2Q350.5625 344.4344 350.5625 344.7625Q350.5625 344.96564 350.6875 345.1219Q350.82812 345.29376 351.09375 345.40314Q351.25 345.46564 352.03125 345.66876Q353.15625 345.98126 353.59375 346.16876Q354.03125 346.35626 354.28125 346.71564Q354.53125 347.075 354.53125 347.6219Q354.53125 348.15314 354.21875 348.6219Q353.92188 349.075 353.34375 349.34064Q352.76562 349.59064 352.03125 349.59064Q350.8125 349.59064 350.17188 349.09064Q349.54688 348.575 349.375 347.59064ZM358.375 347.59064L359.40625 347.4344Q359.5 348.0594 359.89062 348.3875Q360.29688 348.71564 361.03125 348.71564Q361.75 348.71564 362.09375 348.4344Q362.45312 348.1375 362.45312 347.73126Q362.45312 347.3719 362.14062 347.16876Q361.92188 347.02814 361.0625 346.8094Q359.90625 346.5125 359.45312 346.3094Q359.01562 346.09064 358.78125 345.71564Q358.54688 345.34064 358.54688 344.8719Q358.54688 344.46564 358.73438 344.10626Q358.92188 343.7469 359.25 343.5125Q359.5 343.34064 359.92188 343.21564Q360.34375 343.09064 360.84375 343.09064Q361.5625 343.09064 362.10938 343.3094Q362.67188 343.5125 362.9375 343.8719Q363.20312 344.23126 363.29688 344.825L362.26562 344.96564Q362.20312 344.4969 361.85938 344.23126Q361.53125 343.95 360.90625 343.95Q360.1875 343.95 359.875 344.2Q359.5625 344.4344 359.5625 344.7625Q359.5625 344.96564 359.6875 345.1219Q359.82812 345.29376 360.09375 345.40314Q360.25 345.46564 361.03125 345.66876Q362.15625 345.98126 362.59375 346.16876Q363.03125 346.35626 363.28125 346.71564Q363.53125 347.075 363.53125 347.6219Q363.53125 348.15314 363.21875 348.6219Q362.92188 349.075 362.34375 349.34064Q361.76562 349.59064 361.03125 349.59064Q359.8125 349.59064 359.17188 349.09064Q358.54688 348.575 358.375 347.59064ZM364.79688 342.075L364.79688 340.85626L365.85938 340.85626L365.85938 342.075L364.79688 342.075ZM364.79688 349.45L364.79688 343.23126L365.85938 343.23126L365.85938 349.45L364.79688 349.45ZM367.23438 349.45L367.23438 348.59064L371.20312 344.04376Q370.51562 344.075 370.0 344.075L367.46875 344.075L367.46875 343.23126L372.5625 343.23126L372.5625 343.91876L369.1875 347.8719L368.53125 348.59064Q369.25 348.54376 369.85938 348.54376L372.75 348.54376L372.75 349.45L367.23438 349.45ZM378.04688 347.45L379.14062 347.575Q378.89062 348.52814 378.1875 349.0594Q377.48438 349.59064 376.40625 349.59064Q375.04688 349.59064 374.23438 348.7469Q373.4375 347.90314 373.4375 346.3875Q373.4375 344.825 374.25 343.96564Q375.0625 343.09064 376.34375 343.09064Q377.59375 343.09064 378.375 343.9344Q379.17188 344.77814 379.17188 346.325Q379.17188 346.41876 379.17188 346.60626L374.53125 346.60626Q374.59375 347.6375 375.10938 348.1844Q375.625 348.71564 376.40625 348.71564Q376.98438 348.71564 377.39062 348.41876Q377.8125 348.10626 378.04688 347.45ZM374.59375 345.7469L378.0625 345.7469Q378.0 344.95 377.67188 344.5594Q377.15625 343.95 376.35938 343.95Q375.625 343.95 375.125 344.4344Q374.64062 344.91876 374.59375 345.7469Z" fill-rule="nonzero"/><path fill="#000000" d="M29.550013 270.91354L20.956263 270.91354L20.956263 264.71042L21.971888 264.71042L21.971888 269.77292L24.596888 269.77292L24.596888 265.02292L25.612513 265.02292L25.612513 269.77292L28.534388 269.77292L28.534388 264.5073L29.550013 264.5073L29.550013 270.91354ZM29.550013 263.77292L26.315638 261.5073L23.331263 263.60104L23.331263 262.28854L24.784388 261.33542Q25.206263 261.0698 25.487513 260.89792Q25.096888 260.64792 24.800013 260.42917L23.331263 259.3823L23.331263 258.11667L26.253138 260.27292L29.550013 257.96042L29.550013 259.24167L27.612513 260.52292L27.096888 260.86667L29.550013 262.5073L29.550013 263.77292ZM27.550013 252.8198L27.675013 251.72604Q28.628138 251.97604 29.159388 252.67917Q29.690638 253.3823 29.690638 254.46042Q29.690638 255.8198 28.846888 256.6323Q28.003138 257.42917 26.487513 257.42917Q24.925013 257.42917 24.065638 256.61667Q23.190638 255.80417 23.190638 254.52292Q23.190638 253.27292 24.034388 252.49167Q24.878138 251.6948 26.425013 251.6948Q26.518763 251.6948 26.706263 251.6948L26.706263 256.33542Q27.737513 256.27292 28.284388 255.7573Q28.815638 255.24167 28.815638 254.46042Q28.815638 253.8823 28.518763 253.47604Q28.206263 253.05417 27.550013 252.8198ZM25.846888 256.27292L25.846888 252.80417Q25.050013 252.86667 24.659388 253.1948Q24.050013 253.71042 24.050013 254.5073Q24.050013 255.24167 24.534388 255.74167Q25.018763 256.22604 25.846888 256.27292ZM27.268763 246.0073L27.409388 244.97604Q28.471888 245.14792 29.081263 245.85104Q29.690638 246.55417 29.690638 247.5698Q29.690638 248.85104 28.862513 249.6323Q28.018763 250.39792 26.456263 250.39792Q25.456263 250.39792 24.706263 250.0698Q23.940638 249.72604 23.565638 249.05417Q23.190638 248.36667 23.190638 247.55417Q23.190638 246.55417 23.706263 245.91354Q24.206263 245.2573 25.159388 245.0698L25.315638 246.10104Q24.690638 246.24167 24.378138 246.61667Q24.050013 246.99167 24.050013 247.52292Q24.050013 248.3198 24.628138 248.8198Q25.190638 249.3198 26.425013 249.3198Q27.690638 249.3198 28.253138 248.83542Q28.815638 248.35104 28.815638 247.58542Q28.815638 246.96042 28.440638 246.55417Q28.065638 246.1323 27.268763 246.0073ZM29.550013 239.99167L28.628138 239.99167Q29.690638 240.72604 29.690638 241.97604Q29.690638 242.52292 29.487513 243.0073Q29.268763 243.47604 28.956263 243.71042Q28.628138 243.9448 28.159388 244.03854Q27.862513 244.10104 27.175013 244.10104L23.331263 244.10104L23.331263 243.03854L26.784388 243.03854Q27.596888 243.03854 27.893763 242.97604Q28.300013 242.8823 28.550013 242.5698Q28.784388 242.24167 28.784388 241.7573Q28.784388 241.28854 28.550013 240.8823Q28.300013 240.46042 27.878138 240.28854Q27.456263 240.10104 26.659388 240.10104L23.331263 240.10104L23.331263 239.05417L29.550013 239.05417L29.550013 239.99167ZM28.612513 234.77292L29.534388 234.61667Q29.628138 235.0698 29.628138 235.41354Q29.628138 235.99167 29.456263 236.30417Q29.268763 236.61667 28.971888 236.7573Q28.675013 236.8823 27.721888 236.8823L24.143763 236.8823L24.143763 237.64792L23.331263 237.64792L23.331263 236.8823L21.784388 236.8823L21.159388 235.83542L23.331263 235.83542L23.331263 234.77292L24.143763 234.77292L24.143763 235.83542L27.784388 235.83542Q28.237513 235.83542 28.362513 235.78854Q28.487513 235.72604 28.565638 235.60104Q28.643763 235.47604 28.643763 235.24167Q28.643763 235.05417 28.612513 234.77292ZM22.175013 234.0698L20.956263 234.0698L20.956263 233.0073L22.175013 233.0073L22.175013 234.0698ZM29.550013 234.0698L23.331263 234.0698L23.331263 233.0073L29.550013 233.0073L29.550013 234.0698ZM26.440638 231.46042Q24.706263 231.46042 23.878138 230.5073Q23.190638 229.71042 23.190638 228.55417Q23.190638 227.27292 24.034388 226.46042Q24.862513 225.6323 26.346888 225.6323Q27.550013 225.6323 28.237513 225.99167Q28.925013 226.35104 29.315638 227.05417Q29.690638 227.74167 29.690638 228.55417Q29.690638 229.85104 28.862513 230.66354Q28.018763 231.46042 26.440638 231.46042ZM26.440638 230.3823Q27.628138 230.3823 28.221888 229.86667Q28.815638 229.33542 28.815638 228.55417Q28.815638 227.7573 28.221888 227.24167Q27.628138 226.72604 26.409388 226.72604Q25.253138 226.72604 24.659388 227.2573Q24.065638 227.77292 24.065638 228.55417Q24.065638 229.33542 24.659388 229.86667Q25.237513 230.3823 26.440638 230.3823ZM29.550013 224.0698L23.331263 224.0698L23.331263 223.1323L24.206263 223.1323Q23.190638 222.4448 23.190638 221.14792Q23.190638 220.58542 23.393763 220.11667Q23.596888 219.6323 23.925013 219.39792Q24.253138 219.16354 24.690638 219.0698Q24.987513 219.02292 25.721888 219.02292L29.550013 219.02292L29.550013 220.0698L25.768763 220.0698Q25.112513 220.0698 24.800013 220.1948Q24.487513 220.3198 24.300013 220.6323Q24.096888 220.9448 24.096888 221.36667Q24.096888 222.03854 24.534388 222.53854Q24.956263 223.02292 26.143763 223.02292L29.550013 223.02292L29.550013 224.0698ZM28.612513 211.77292L29.534388 211.61667Q29.628138 212.0698 29.628138 212.41354Q29.628138 212.99167 29.456263 213.30417Q29.268763 213.61667 28.971888 213.7573Q28.675013 213.8823 27.721888 213.8823L24.143763 213.8823L24.143763 214.64792L23.331263 214.64792L23.331263 213.8823L21.784388 213.8823L21.159388 212.83542L23.331263 212.83542L23.331263 211.77292L24.143763 211.77292L24.143763 212.83542L27.784388 212.83542Q28.237513 212.83542 28.362513 212.78854Q28.487513 212.72604 28.565638 212.60104Q28.643763 212.47604 28.643763 212.24167Q28.643763 212.05417 28.612513 211.77292ZM22.175013 211.0698L20.956263 211.0698L20.956263 210.0073L22.175013 210.0073L22.175013 211.0698ZM29.550013 211.0698L23.331263 211.0698L23.331263 210.0073L29.550013 210.0073L29.550013 211.0698ZM29.550013 208.0698L23.331263 208.0698L23.331263 207.1323L24.206263 207.1323Q23.737513 206.83542 23.471888 206.35104Q23.190638 205.86667 23.190638 205.24167Q23.190638 204.55417 23.471888 204.11667Q23.753138 203.66354 24.268763 203.49167Q23.190638 202.74167 23.190638 201.5698Q23.190638 200.6323 23.706263 200.14792Q24.206263 199.64792 25.284388 199.64792L29.550013 199.64792L29.550013 200.6948L25.628138 200.6948Q25.003138 200.6948 24.721888 200.80417Q24.440638 200.89792 24.268763 201.16354Q24.096888 201.42917 24.096888 201.80417Q24.096888 202.46042 24.534388 202.89792Q24.971888 203.3198 25.940638 203.3198L29.550013 203.3198L29.550013 204.3823L25.503138 204.3823Q24.800013 204.3823 24.456263 204.64792Q24.096888 204.89792 24.096888 205.47604Q24.096888 205.92917 24.331263 206.30417Q24.565638 206.67917 25.018763 206.85104Q25.471888 207.02292 26.315638 207.02292L29.550013 207.02292L29.550013 208.0698ZM27.550013 193.8198L27.675013 192.72604Q28.628138 192.97604 29.159388 193.67917Q29.690638 194.3823 29.690638 195.46042Q29.690638 196.8198 28.846888 197.6323Q28.003138 198.42917 26.487513 198.42917Q24.925013 198.42917 24.065638 197.61667Q23.190638 196.80417 23.190638 195.52292Q23.190638 194.27292 24.034388 193.49167Q24.878138 192.6948 26.425013 192.6948Q26.518763 192.6948 26.706263 192.6948L26.706263 197.33542Q27.737513 197.27292 28.284388 196.7573Q28.815638 196.24167 28.815638 195.46042Q28.815638 194.8823 28.518763 194.47604Q28.206263 194.05417 27.550013 193.8198ZM25.846888 197.27292L25.846888 193.80417Q25.050013 193.86667 24.659388 194.1948Q24.050013 194.71042 24.050013 195.5073Q24.050013 196.24167 24.534388 196.74167Q25.018763 197.22604 25.846888 197.27292ZM22.175013 188.0698L20.956263 188.0698L20.956263 187.0073L22.175013 187.0073L22.175013 188.0698ZM29.550013 188.0698L23.331263 188.0698L23.331263 187.0073L29.550013 187.0073L29.550013 188.0698ZM29.550013 185.0698L23.331263 185.0698L23.331263 184.1323L24.206263 184.1323Q23.190638 183.4448 23.190638 182.14792Q23.190638 181.58542 23.393763 181.11667Q23.596888 180.6323 23.925013 180.39792Q24.253138 180.16354 24.690638 180.0698Q24.987513 180.02292 25.721888 180.02292L29.550013 180.02292L29.550013 181.0698L25.768763 181.0698Q25.112513 181.0698 24.800013 181.1948Q24.487513 181.3198 24.300013 181.6323Q24.096888 181.9448 24.096888 182.36667Q24.096888 183.03854 24.534388 183.53854Q24.956263 184.02292 26.143763 184.02292L29.550013 184.02292L29.550013 185.0698ZM27.690638 175.49167L27.534388 174.46042Q28.159388 174.36667 28.487513 173.97604Q28.815638 173.5698 28.815638 172.83542Q28.815638 172.11667 28.534388 171.77292Q28.237513 171.41354 27.831263 171.41354Q27.471888 171.41354 27.268763 171.72604Q27.128138 171.9448 26.909388 172.80417Q26.612513 173.96042 26.409388 174.41354Q26.190638 174.85104 25.815638 175.08542Q25.440638 175.3198 24.971888 175.3198Q24.565638 175.3198 24.206263 175.1323Q23.846888 174.9448 23.612513 174.61667Q23.440638 174.36667 23.315638 173.9448Q23.190638 173.52292 23.190638 173.02292Q23.190638 172.30417 23.409388 171.7573Q23.612513 171.1948 23.971888 170.92917Q24.331263 170.66354 24.925013 170.5698L25.065638 171.60104Q24.596888 171.66354 24.331263 172.0073Q24.050013 172.33542 24.050013 172.96042Q24.050013 173.67917 24.300013 173.99167Q24.534388 174.30417 24.862513 174.30417Q25.065638 174.30417 25.221888 174.17917Q25.393763 174.03854 25.503138 173.77292Q25.565638 173.61667 25.768763 172.83542Q26.081263 171.71042 26.268763 171.27292Q26.456263 170.83542 26.815638 170.58542Q27.175013 170.33542 27.721888 170.33542Q28.253138 170.33542 28.721888 170.64792Q29.175013 170.9448 29.440638 171.52292Q29.690638 172.10104 29.690638 172.83542Q29.690638 174.05417 29.190638 174.6948Q28.675013 175.3198 27.690638 175.49167ZM27.550013 164.8198L27.675013 163.72604Q28.628138 163.97604 29.159388 164.67917Q29.690638 165.3823 29.690638 166.46042Q29.690638 167.8198 28.846888 168.6323Q28.003138 169.42917 26.487513 169.42917Q24.925013 169.42917 24.065638 168.61667Q23.190638 167.80417 23.190638 166.52292Q23.190638 165.27292 24.034388 164.49167Q24.878138 163.6948 26.425013 163.6948Q26.518763 163.6948 26.706263 163.6948L26.706263 168.33542Q27.737513 168.27292 28.284388 167.7573Q28.815638 167.24167 28.815638 166.46042Q28.815638 165.8823 28.518763 165.47604Q28.206263 165.05417 27.550013 164.8198ZM25.846888 168.27292L25.846888 164.80417Q25.050013 164.86667 24.659388 165.1948Q24.050013 165.71042 24.050013 166.5073Q24.050013 167.24167 24.534388 167.74167Q25.018763 168.22604 25.846888 168.27292ZM27.268763 158.0073L27.409388 156.97604Q28.471888 157.14792 29.081263 157.85104Q29.690638 158.55417 29.690638 159.5698Q29.690638 160.85104 28.862513 161.6323Q28.018763 162.39792 26.456263 162.39792Q25.456263 162.39792 24.706263 162.0698Q23.940638 161.72604 23.565638 161.05417Q23.190638 160.36667 23.190638 159.55417Q23.190638 158.55417 23.706263 157.91354Q24.206263 157.2573 25.159388 157.0698L25.315638 158.10104Q24.690638 158.24167 24.378138 158.61667Q24.050013 158.99167 24.050013 159.52292Q24.050013 160.3198 24.628138 160.8198Q25.190638 161.3198 26.425013 161.3198Q27.690638 161.3198 28.253138 160.83542Q28.815638 160.35104 28.815638 159.58542Q28.815638 158.96042 28.440638 158.55417Q28.065638 158.1323 27.268763 158.0073ZM26.440638 156.46042Q24.706263 156.46042 23.878138 155.5073Q23.190638 154.71042 23.190638 153.55417Q23.190638 152.27292 24.034388 151.46042Q24.862513 150.6323 26.346888 150.6323Q27.550013 150.6323 28.237513 150.99167Q28.925013 151.35104 29.315638 152.05417Q29.690638 152.74167 29.690638 153.55417Q29.690638 154.85104 28.862513 155.66354Q28.018763 156.46042 26.440638 156.46042ZM26.440638 155.3823Q27.628138 155.3823 28.221888 154.86667Q28.815638 154.33542 28.815638 153.55417Q28.815638 152.7573 28.221888 152.24167Q27.628138 151.72604 26.409388 151.72604Q25.253138 151.72604 24.659388 152.2573Q24.065638 152.77292 24.065638 153.55417Q24.065638 154.33542 24.659388 154.86667Q25.237513 155.3823 26.440638 155.3823ZM29.550013 149.0698L23.331263 149.0698L23.331263 148.1323L24.206263 148.1323Q23.190638 147.4448 23.190638 146.14792Q23.190638 145.58542 23.393763 145.11667Q23.596888 144.6323 23.925013 144.39792Q24.253138 144.16354 24.690638 144.0698Q24.987513 144.02292 25.721888 144.02292L29.550013 144.02292L29.550013 145.0698L25.768763 145.0698Q25.112513 145.0698 24.800013 145.1948Q24.487513 145.3198 24.300013 145.6323Q24.096888 145.9448 24.096888 146.36667Q24.096888 147.03854 24.534388 147.53854Q24.956263 148.02292 26.143763 148.02292L29.550013 148.02292L29.550013 149.0698ZM29.550013 138.03854L28.768763 138.03854Q29.690638 138.6323 29.690638 139.77292Q29.690638 140.52292 29.284388 141.14792Q28.862513 141.77292 28.128138 142.11667Q27.393763 142.46042 26.440638 142.46042Q25.518763 142.46042 24.753138 142.14792Q23.987513 141.83542 23.596888 141.21042Q23.190638 140.58542 23.190638 139.8198Q23.190638 139.2573 23.425013 138.8198Q23.659388 138.3823 24.034388 138.10104L20.956263 138.10104L20.956263 137.05417L29.550013 137.05417L29.550013 138.03854ZM26.440638 141.36667Q27.643763 141.36667 28.237513 140.86667Q28.815638 140.36667 28.815638 139.67917Q28.815638 138.99167 28.253138 138.5073Q27.690638 138.02292 26.534388 138.02292Q25.253138 138.02292 24.659388 138.52292Q24.065638 139.0073 24.065638 139.72604Q24.065638 140.42917 24.643763 140.89792Q25.206263 141.36667 26.440638 141.36667ZM27.690638 135.49167L27.534388 134.46042Q28.159388 134.36667 28.487513 133.97604Q28.815638 133.5698 28.815638 132.83542Q28.815638 132.11667 28.534388 131.77292Q28.237513 131.41354 27.831263 131.41354Q27.471888 131.41354 27.268763 131.72604Q27.128138 131.9448 26.909388 132.80417Q26.612513 133.96042 26.409388 134.41354Q26.190638 134.85104 25.815638 135.08542Q25.440638 135.3198 24.971888 135.3198Q24.565638 135.3198 24.206263 135.1323Q23.846888 134.9448 23.612513 134.61667Q23.440638 134.36667 23.315638 133.9448Q23.190638 133.52292 23.190638 133.02292Q23.190638 132.30417 23.409388 131.7573Q23.612513 131.1948 23.971888 130.92917Q24.331263 130.66354 24.925013 130.5698L25.065638 131.60104Q24.596888 131.66354 24.331263 132.0073Q24.050013 132.33542 24.050013 132.96042Q24.050013 133.67917 24.300013 133.99167Q24.534388 134.30417 24.862513 134.30417Q25.065638 134.30417 25.221888 134.17917Q25.393763 134.03854 25.503138 133.77292Q25.565638 133.61667 25.768763 132.83542Q26.081263 131.71042 26.268763 131.27292Q26.456263 130.83542 26.815638 130.58542Q27.175013 130.33542 27.721888 130.33542Q28.253138 130.33542 28.721888 130.64792Q29.175013 130.9448 29.440638 131.52292Q29.690638 132.10104 29.690638 132.83542Q29.690638 134.05417 29.190638 134.6948Q28.675013 135.3198 27.690638 135.49167Z" fill-rule="nonzero"/><path fill="#000000" d="M65.05 300.21564Q65.05 298.6844 65.3625 297.7625Q65.675 296.825 66.28438 296.325Q66.90938 295.825 67.84688 295.825Q68.53438 295.825 69.05 296.10626Q69.58125 296.3875 69.925 296.91876Q70.26875 297.4344 70.45625 298.1844Q70.64375 298.9344 70.64375 300.21564Q70.64375 301.73126 70.33125 302.65314Q70.03438 303.575 69.40938 304.09064Q68.8 304.59064 67.84688 304.59064Q66.6125 304.59064 65.89375 303.7Q65.05 302.6375 65.05 300.21564ZM66.12813 300.21564Q66.12813 302.325 66.62813 303.02814Q67.12813 303.73126 67.84688 303.73126Q68.58125 303.73126 69.06563 303.02814Q69.56563 302.325 69.56563 300.21564Q69.56563 298.09064 69.06563 297.40314Q68.58125 296.7 67.83125 296.7Q67.1125 296.7 66.675 297.3094Q66.12813 298.09064 66.12813 300.21564Z" fill-rule="nonzero"/><path fill="#000000" d="M70.59688 270.79333L70.59688 271.80896L64.90938 271.80896Q64.90938 271.43396 65.03438 271.0746Q65.25313 270.49646 65.72188 269.93396Q66.20625 269.37146 67.1125 268.6371Q68.51875 267.48083 69.00313 266.80896Q69.50313 266.1371 69.50313 265.54333Q69.50313 264.91833 69.05 264.49646Q68.59688 264.05896 67.87813 264.05896Q67.1125 264.05896 66.65938 264.5121Q66.20625 264.9652 66.19063 265.7777L65.1125 265.66833Q65.22188 264.4496 65.94063 263.8246Q66.675 263.18396 67.90938 263.18396Q69.14375 263.18396 69.8625 263.87146Q70.58125 264.55896 70.58125 265.5746Q70.58125 266.0902 70.3625 266.5902Q70.15938 267.0746 69.65938 267.6371Q69.175 268.18396 68.05 269.1371Q67.09688 269.93396 66.81563 270.23083Q66.55 270.5121 66.37813 270.79333L70.59688 270.79333Z" fill-rule="nonzero"/><path fill="#000000" d="M68.425 239.16795L68.425 237.10545L64.70625 237.10545L64.70625 236.1367L68.62813 230.5742L69.4875 230.5742L69.4875 236.1367L70.64375 236.1367L70.64375 237.10545L69.4875 237.10545L69.4875 239.16795L68.425 239.16795ZM68.425 236.1367L68.425 232.27733L65.7375 236.1367L68.425 236.1367Z" fill-rule="nonzero"/><path fill="#000000" d="M70.51875 200.04254L69.47188 200.12067Q69.33125 199.49567 69.08125 199.21442Q68.64375 198.76129 68.01875 198.76129Q67.51875 198.76129 67.12813 199.04254Q66.64375 199.41754 66.34688 200.12067Q66.06563 200.80817 66.05 202.08942Q66.425 201.51129 66.97188 201.23004Q67.53438 200.94879 68.14375 200.94879Q69.19063 200.94879 69.925 201.73004Q70.675 202.51129 70.675 203.73004Q70.675 204.54254 70.31563 205.24567Q69.97188 205.93317 69.3625 206.30817Q68.75313 206.66754 67.9875 206.66754Q66.65938 206.66754 65.83125 205.69879Q65.00313 204.73004 65.00313 202.51129Q65.00313 200.01129 65.925 198.88629Q66.72188 197.90192 68.08125 197.90192Q69.09688 197.90192 69.7375 198.48004Q70.39375 199.04254 70.51875 200.04254ZM66.22188 203.74567Q66.22188 204.29254 66.44063 204.79254Q66.675 205.27692 67.08125 205.54254Q67.50313 205.80817 67.97188 205.80817Q68.62813 205.80817 69.1125 205.27692Q69.59688 204.73004 69.59688 203.80817Q69.59688 202.91754 69.1125 202.40192Q68.64375 201.88629 67.925 201.88629Q67.20625 201.88629 66.70625 202.40192Q66.22188 202.91754 66.22188 203.74567Z" fill-rule="nonzero"/><path fill="#000000" d="M66.675 169.22964Q66.01875 168.97964 65.69063 168.54214Q65.37813 168.08902 65.37813 167.47964Q65.37813 166.54214 66.05 165.90152Q66.7375 165.2609 67.84688 165.2609Q68.97188 165.2609 69.65938 165.91714Q70.34688 166.5734 70.34688 167.5109Q70.34688 168.10464 70.03438 168.54214Q69.72188 168.97964 69.08125 169.22964Q69.87813 169.47964 70.28438 170.05777Q70.69063 170.6359 70.69063 171.43277Q70.69063 172.52652 69.90938 173.27652Q69.14375 174.02652 67.8625 174.02652Q66.59688 174.02652 65.81563 173.27652Q65.03438 172.52652 65.03438 171.40152Q65.03438 170.55777 65.45625 169.99527Q65.89375 169.43277 66.675 169.22964ZM66.45625 167.43277Q66.45625 168.04214 66.84688 168.43277Q67.25313 168.8234 67.87813 168.8234Q68.4875 168.8234 68.87813 168.4484Q69.26875 168.05777 69.26875 167.49527Q69.26875 166.91714 68.8625 166.52652Q68.45625 166.12027 67.8625 166.12027Q67.25313 166.12027 66.84688 166.5109Q66.45625 166.90152 66.45625 167.43277ZM66.12813 171.40152Q66.12813 171.85464 66.33125 172.27652Q66.55 172.6984 66.97188 172.93277Q67.39375 173.16714 67.87813 173.16714Q68.62813 173.16714 69.1125 172.68277Q69.6125 172.1984 69.6125 171.4484Q69.6125 170.68277 69.1125 170.18277Q68.6125 169.68277 67.84688 169.68277Q67.09688 169.68277 66.6125 170.18277Q66.12813 170.66714 66.12813 171.40152Z" fill-rule="nonzero"/><path fill="#000000" d="M62.01875 141.24487L60.971874 141.24487L60.971874 134.52612Q60.58125 134.8855 59.95625 135.2605Q59.346874 135.61987 58.8625 135.79175L58.8625 134.77612Q59.7375 134.35425 60.39375 133.77612Q61.065624 133.18237 61.346874 132.61987L62.01875 132.61987L62.01875 141.24487ZM65.05 137.0105Q65.05 135.47925 65.3625 134.55737Q65.675 133.61987 66.28438 133.11987Q66.90938 132.61987 67.84688 132.61987Q68.53438 132.61987 69.05 132.90112Q69.58125 133.18237 69.925 133.71362Q70.26875 134.22925 70.45625 134.97925Q70.64375 135.72925 70.64375 137.0105Q70.64375 138.52612 70.33125 139.448Q70.03438 140.36987 69.40938 140.8855Q68.8 141.3855 67.84688 141.3855Q66.6125 141.3855 65.89375 140.49487Q65.05 139.43237 65.05 137.0105ZM66.12813 137.0105Q66.12813 139.11987 66.62813 139.823Q67.12813 140.52612 67.84688 140.52612Q68.58125 140.52612 69.06563 139.823Q69.56563 139.11987 69.56563 137.0105Q69.56563 134.8855 69.06563 134.198Q68.58125 133.49487 67.83125 133.49487Q67.1125 133.49487 66.675 134.10425Q66.12813 134.8855 66.12813 137.0105Z" fill-rule="nonzero"/><path fill="#000000" d="M62.01875 108.60384L60.971874 108.60384L60.971874 101.88509Q60.58125 102.24447 59.95625 102.61947Q59.346874 102.97884 58.8625 103.15072L58.8625 102.13509Q59.7375 101.71322 60.39375 101.13509Q61.065624 100.54134 61.346874 99.97884L62.01875 99.97884L62.01875 108.60384ZM70.59688 107.58822L70.59688 108.60384L64.90938 108.60384Q64.90938 108.22884 65.03438 107.86947Q65.25313 107.29134 65.72188 106.72884Q66.20625 106.16634 67.1125 105.43197Q68.51875 104.27572 69.00313 103.60384Q69.50313 102.93197 69.50313 102.33822Q69.50313 101.71322 69.05 101.29134Q68.59688 100.85384 67.87813 100.85384Q67.1125 100.85384 66.65938 101.30697Q66.20625 101.76009 66.19063 102.57259L65.1125 102.46322Q65.22188 101.24447 65.94063 100.61947Q66.675 99.97884 67.90938 99.97884Q69.14375 99.97884 69.8625 100.66634Q70.58125 101.35384 70.58125 102.36947Q70.58125 102.88509 70.3625 103.38509Q70.15938 103.86947 69.65938 104.43197Q69.175 104.97884 68.05 105.93197Q67.09688 106.72884 66.81563 107.02572Q66.55 107.30697 66.37813 107.58822L70.59688 107.58822Z" fill-rule="nonzero"/><path fill="#000000" d="M132.58575 316.4344L132.58575 317.45L126.89826 317.45Q126.89826 317.075 127.02326 316.71564Q127.24201 316.1375 127.71076 315.575Q128.19513 315.0125 129.10138 314.27814Q130.50763 313.1219 130.992 312.45Q131.492 311.77814 131.492 311.1844Q131.492 310.5594 131.03888 310.1375Q130.58575 309.7 129.867 309.7Q129.10138 309.7 128.64825 310.15314Q128.19513 310.60626 128.1795 311.41876L127.10139 311.3094Q127.21076 310.09064 127.92951 309.46564Q128.66388 308.825 129.89825 308.825Q131.13263 308.825 131.85138 309.5125Q132.57013 310.2 132.57013 311.21564Q132.57013 311.73126 132.35138 312.23126Q132.14825 312.71564 131.64825 313.27814Q131.16388 313.825 130.03888 314.77814Q129.08575 315.575 128.8045 315.8719Q128.53888 316.15314 128.367 316.4344L132.58575 316.4344ZM134.03888 313.21564Q134.03888 311.6844 134.35138 310.7625Q134.66388 309.825 135.27325 309.325Q135.89825 308.825 136.83575 308.825Q137.52325 308.825 138.03888 309.10626Q138.57013 309.3875 138.91388 309.91876Q139.25763 310.4344 139.44513 311.1844Q139.63263 311.9344 139.63263 313.21564Q139.63263 314.73126 139.32013 315.65314Q139.02325 316.575 138.39825 317.09064Q137.78888 317.59064 136.83575 317.59064Q135.60138 317.59064 134.88263 316.7Q134.03888 315.6375 134.03888 313.21564ZM135.117 313.21564Q135.117 315.325 135.617 316.02814Q136.117 316.73126 136.83575 316.73126Q137.57013 316.73126 138.0545 316.02814Q138.5545 315.325 138.5545 313.21564Q138.5545 311.09064 138.0545 310.40314Q137.57013 309.7 136.82013 309.7Q136.10138 309.7 135.66388 310.3094Q135.117 311.09064 135.117 313.21564Z" fill-rule="nonzero"/><path fill="#000000" d="M242.39166 317.45L242.39166 315.3875L238.67291 315.3875L238.67291 314.41876L242.59479 308.85626L243.45416 308.85626L243.45416 314.41876L244.61041 314.41876L244.61041 315.3875L243.45416 315.3875L243.45416 317.45L242.39166 317.45ZM242.39166 314.41876L242.39166 310.5594L239.70416 314.41876L242.39166 314.41876ZM246.01666 313.21564Q246.01666 311.6844 246.32916 310.7625Q246.64166 309.825 247.25104 309.325Q247.87604 308.825 248.81354 308.825Q249.50104 308.825 250.01666 309.10626Q250.54791 309.3875 250.89166 309.91876Q251.23541 310.4344 251.42291 311.1844Q251.61041 311.9344 251.61041 313.21564Q251.61041 314.73126 251.29791 315.65314Q251.00104 316.575 250.37604 317.09064Q249.76666 317.59064 248.81354 317.59064Q247.57916 317.59064 246.86041 316.7Q246.01666 315.6375 246.01666 313.21564ZM247.09479 313.21564Q247.09479 315.325 247.59479 316.02814Q248.09479 316.73126 248.81354 316.73126Q249.54791 316.73126 250.03229 316.02814Q250.53229 315.325 250.53229 313.21564Q250.53229 311.09064 250.03229 310.40314Q249.54791 309.7 248.79791 309.7Q248.07916 309.7 247.64166 310.3094Q247.09479 311.09064 247.09479 313.21564Z" fill-rule="nonzero"/><path fill="#000000" d="M356.4632 310.96564L355.41632 311.04376Q355.2757 310.41876 355.0257 310.1375Q354.5882 309.6844 353.9632 309.6844Q353.4632 309.6844 353.07257 309.96564Q352.5882 310.34064 352.29132 311.04376Q352.01007 311.73126 351.99445 313.0125Q352.36945 312.4344 352.91632 312.15314Q353.47882 311.8719 354.0882 311.8719Q355.13507 311.8719 355.86945 312.65314Q356.61945 313.4344 356.61945 314.65314Q356.61945 315.46564 356.26007 316.16876Q355.91632 316.85626 355.30695 317.23126Q354.69757 317.59064 353.93195 317.59064Q352.60382 317.59064 351.7757 316.6219Q350.94757 315.65314 350.94757 313.4344Q350.94757 310.9344 351.86945 309.8094Q352.66632 308.825 354.0257 308.825Q355.04132 308.825 355.68195 309.40314Q356.3382 309.96564 356.4632 310.96564ZM352.16632 314.66876Q352.16632 315.21564 352.38507 315.71564Q352.61945 316.2 353.0257 316.46564Q353.44757 316.73126 353.91632 316.73126Q354.57257 316.73126 355.05695 316.2Q355.54132 315.65314 355.54132 314.73126Q355.54132 313.84064 355.05695 313.325Q354.5882 312.8094 353.86945 312.8094Q353.1507 312.8094 352.6507 313.325Q352.16632 313.84064 352.16632 314.66876ZM357.99445 313.21564Q357.99445 311.6844 358.30695 310.7625Q358.61945 309.825 359.22882 309.325Q359.85382 308.825 360.79132 308.825Q361.47882 308.825 361.99445 309.10626Q362.5257 309.3875 362.86945 309.91876Q363.2132 310.4344 363.4007 311.1844Q363.5882 311.9344 363.5882 313.21564Q363.5882 314.73126 363.2757 315.65314Q362.97882 316.575 362.35382 317.09064Q361.74445 317.59064 360.79132 317.59064Q359.55695 317.59064 358.8382 316.7Q357.99445 315.6375 357.99445 313.21564ZM359.07257 313.21564Q359.07257 315.325 359.57257 316.02814Q360.07257 316.73126 360.79132 316.73126Q361.5257 316.73126 362.01007 316.02814Q362.51007 315.325 362.51007 313.21564Q362.51007 311.09064 362.01007 310.40314Q361.5257 309.7 360.7757 309.7Q360.05695 309.7 359.61945 310.3094Q359.07257 311.09064 359.07257 313.21564Z" fill-rule="nonzero"/><path fill="#000000" d="M464.59723 312.79376Q463.94098 312.54376 463.61285 312.10626Q463.30035 311.65314 463.30035 311.04376Q463.30035 310.10626 463.97223 309.46564Q464.65973 308.825 465.7691 308.825Q466.8941 308.825 467.5816 309.48126Q468.2691 310.1375 468.2691 311.075Q468.2691 311.66876 467.9566 312.10626Q467.6441 312.54376 467.00348 312.79376Q467.80035 313.04376 468.2066 313.6219Q468.61285 314.2 468.61285 314.9969Q468.61285 316.09064 467.8316 316.84064Q467.06598 317.59064 465.78473 317.59064Q464.5191 317.59064 463.73785 316.84064Q462.9566 316.09064 462.9566 314.96564Q462.9566 314.1219 463.37848 313.5594Q463.81598 312.9969 464.59723 312.79376ZM464.37848 310.9969Q464.37848 311.60626 464.7691 311.9969Q465.17535 312.3875 465.80035 312.3875Q466.40973 312.3875 466.80035 312.0125Q467.19098 311.6219 467.19098 311.0594Q467.19098 310.48126 466.78473 310.09064Q466.37848 309.6844 465.78473 309.6844Q465.17535 309.6844 464.7691 310.075Q464.37848 310.46564 464.37848 310.9969ZM464.05035 314.96564Q464.05035 315.41876 464.25348 315.84064Q464.47223 316.2625 464.8941 316.4969Q465.31598 316.73126 465.80035 316.73126Q466.55035 316.73126 467.03473 316.2469Q467.53473 315.7625 467.53473 315.0125Q467.53473 314.2469 467.03473 313.7469Q466.53473 313.2469 465.7691 313.2469Q465.0191 313.2469 464.53473 313.7469Q464.05035 314.23126 464.05035 314.96564ZM469.97223 313.21564Q469.97223 311.6844 470.28473 310.7625Q470.59723 309.825 471.2066 309.325Q471.8316 308.825 472.7691 308.825Q473.4566 308.825 473.97223 309.10626Q474.50348 309.3875 474.84723 309.91876Q475.19098 310.4344 475.37848 311.1844Q475.56598 311.9344 475.56598 313.21564Q475.56598 314.73126 475.25348 315.65314Q474.9566 316.575 474.3316 317.09064Q473.72223 317.59064 472.7691 317.59064Q471.53473 317.59064 470.81598 316.7Q469.97223 315.6375 469.97223 313.21564ZM471.05035 313.21564Q471.05035 315.325 471.55035 316.02814Q472.05035 316.73126 472.7691 316.73126Q473.50348 316.73126 473.98785 316.02814Q474.48785 315.325 474.48785 313.21564Q474.48785 311.09064 473.98785 310.40314Q473.50348 309.7 472.75348 309.7Q472.03473 309.7 471.59723 310.3094Q471.05035 311.09064 471.05035 313.21564Z" fill-rule="nonzero"/><path fill="#000000" d="M575.41876 317.45L574.3719 317.45L574.3719 310.73126Q573.98126 311.09064 573.35626 311.46564Q572.7469 311.825 572.2625 311.9969L572.2625 310.98126Q573.1375 310.5594 573.79376 309.98126Q574.46564 309.3875 574.7469 308.825L575.41876 308.825L575.41876 317.45ZM578.45 313.21564Q578.45 311.6844 578.7625 310.7625Q579.075 309.825 579.6844 309.325Q580.3094 308.825 581.2469 308.825Q581.9344 308.825 582.45 309.10626Q582.98126 309.3875 583.325 309.91876Q583.66876 310.4344 583.85626 311.1844Q584.04376 311.9344 584.04376 313.21564Q584.04376 314.73126 583.73126 315.65314Q583.4344 316.575 582.8094 317.09064Q582.2 317.59064 581.2469 317.59064Q580.0125 317.59064 579.29376 316.7Q578.45 315.6375 578.45 313.21564ZM579.52814 313.21564Q579.52814 315.325 580.02814 316.02814Q580.52814 316.73126 581.2469 316.73126Q581.98126 316.73126 582.46564 316.02814Q582.96564 315.325 582.96564 313.21564Q582.96564 311.09064 582.46564 310.40314Q581.98126 309.7 581.23126 309.7Q580.5125 309.7 580.075 310.3094Q579.52814 311.09064 579.52814 313.21564ZM585.45 313.21564Q585.45 311.6844 585.7625 310.7625Q586.075 309.825 586.6844 309.325Q587.3094 308.825 588.2469 308.825Q588.9344 308.825 589.45 309.10626Q589.98126 309.3875 590.325 309.91876Q590.66876 310.4344 590.85626 311.1844Q591.04376 311.9344 591.04376 313.21564Q591.04376 314.73126 590.73126 315.65314Q590.4344 316.575 589.8094 317.09064Q589.2 317.59064 588.2469 317.59064Q587.0125 317.59064 586.29376 316.7Q585.45 315.6375 585.45 313.21564ZM586.52814 313.21564Q586.52814 315.325 587.02814 316.02814Q587.52814 316.73126 588.2469 316.73126Q588.98126 316.73126 589.46564 316.02814Q589.96564 315.325 589.96564 313.21564Q589.96564 311.09064 589.46564 310.40314Q588.98126 309.7 588.23126 309.7Q587.5125 309.7 587.075 310.3094Q586.52814 311.09064 586.52814 313.21564Z" fill-rule="nonzero"/><path stroke="#4285f4" stroke-width="4.0" stroke-linecap="butt" d="M132.5 61.916668L144.5 61.916668" fill-rule="nonzero"/><path fill="#1a1a1a" d="M153.39062 65.916664L153.39062 57.322914L155.10938 57.322914L157.14062 63.40104Q157.42188 64.260414 157.54688 64.68229Q157.6875 64.21354 158.0 63.30729L160.0625 57.322914L161.59375 57.322914L161.59375 65.916664L160.5 65.916664L160.5 58.729164L158.0 65.916664L156.96875 65.916664L154.48438 58.604164L154.48438 65.916664L153.39062 65.916664ZM167.35938 65.15104Q166.76562 65.65104 166.21875 65.854164Q165.6875 66.05729 165.0625 66.05729Q164.03125 66.05729 163.48438 65.55729Q162.9375 65.05729 162.9375 64.27604Q162.9375 63.822914 163.14062 63.447914Q163.34375 63.05729 163.6875 62.83854Q164.03125 62.604164 164.45312 62.49479Q164.75 62.40104 165.39062 62.322914Q166.65625 62.18229 167.26562 61.96354Q167.26562 61.74479 167.26562 61.697914Q167.26562 61.041664 166.96875 60.77604Q166.5625 60.43229 165.76562 60.43229Q165.03125 60.43229 164.67188 60.697914Q164.3125 60.947914 164.14062 61.604164L163.10938 61.46354Q163.25 60.80729 163.57812 60.40104Q163.90625 59.99479 164.51562 59.77604Q165.125 59.55729 165.92188 59.55729Q166.71875 59.55729 167.21875 59.74479Q167.71875 59.93229 167.95312 60.21354Q168.1875 60.49479 168.28125 60.93229Q168.32812 61.197914 168.32812 61.90104L168.32812 63.30729Q168.32812 64.77604 168.39062 65.166664Q168.46875 65.55729 168.67188 65.916664L167.5625 65.916664Q167.40625 65.58854 167.35938 65.15104ZM167.26562 62.791664Q166.6875 63.02604 165.54688 63.197914Q164.89062 63.291664 164.625 63.416664Q164.35938 63.52604 164.20312 63.74479Q164.0625 63.96354 164.0625 64.24479Q164.0625 64.666664 164.375 64.947914Q164.70312 65.229164 165.3125 65.229164Q165.92188 65.229164 166.39062 64.96354Q166.875 64.697914 167.09375 64.229164Q167.26562 63.86979 167.26562 63.18229L167.26562 62.791664ZM170.25 68.30729L170.125 67.322914Q170.46875 67.416664 170.73438 67.416664Q171.07812 67.416664 171.28125 67.291664Q171.5 67.18229 171.64062 66.979164Q171.73438 66.80729 171.96875 66.18229Q171.98438 66.104164 172.0625 65.93229L169.6875 59.697914L170.82812 59.697914L172.125 63.291664Q172.375 63.979164 172.57812 64.74479Q172.76562 64.010414 173.01562 63.322914L174.34375 59.697914L175.39062 59.697914L173.03125 66.02604Q172.64062 67.041664 172.4375 67.43229Q172.15625 67.96354 171.78125 68.197914Q171.42188 68.447914 170.92188 68.447914Q170.625 68.447914 170.25 68.30729ZM180.35938 65.15104Q179.76562 65.65104 179.21875 65.854164Q178.6875 66.05729 178.0625 66.05729Q177.03125 66.05729 176.48438 65.55729Q175.9375 65.05729 175.9375 64.27604Q175.9375 63.822914 176.14062 63.447914Q176.34375 63.05729 176.6875 62.83854Q177.03125 62.604164 177.45312 62.49479Q177.75 62.40104 178.39062 62.322914Q179.65625 62.18229 180.26562 61.96354Q180.26562 61.74479 180.26562 61.697914Q180.26562 61.041664 179.96875 60.77604Q179.5625 60.43229 178.76562 60.43229Q178.03125 60.43229 177.67188 60.697914Q177.3125 60.947914 177.14062 61.604164L176.10938 61.46354Q176.25 60.80729 176.57812 60.40104Q176.90625 59.99479 177.51562 59.77604Q178.125 59.55729 178.92188 59.55729Q179.71875 59.55729 180.21875 59.74479Q180.71875 59.93229 180.95312 60.21354Q181.1875 60.49479 181.28125 60.93229Q181.32812 61.197914 181.32812 61.90104L181.32812 63.30729Q181.32812 64.77604 181.39062 65.166664Q181.46875 65.55729 181.67188 65.916664L180.5625 65.916664Q180.40625 65.58854 180.35938 65.15104ZM180.26562 62.791664Q179.6875 63.02604 178.54688 63.197914Q177.89062 63.291664 177.625 63.416664Q177.35938 63.52604 177.20312 63.74479Q177.0625 63.96354 177.0625 64.24479Q177.0625 64.666664 177.375 64.947914Q177.70312 65.229164 178.3125 65.229164Q178.92188 65.229164 179.39062 64.96354Q179.875 64.697914 180.09375 64.229164Q180.26562 63.86979 180.26562 63.18229L180.26562 62.791664ZM190.35938 63.635414L191.39062 63.77604Q191.21875 64.83854 190.51562 65.447914Q189.8125 66.05729 188.79688 66.05729Q187.51562 66.05729 186.73438 65.229164Q185.96875 64.385414 185.96875 62.822914Q185.96875 61.822914 186.29688 61.072914Q186.64062 60.30729 187.3125 59.93229Q188.0 59.55729 188.8125 59.55729Q189.8125 59.55729 190.45312 60.072914Q191.10938 60.572914 191.29688 61.52604L190.26562 61.68229Q190.125 61.05729 189.75 60.74479Q189.375 60.416664 188.84375 60.416664Q188.04688 60.416664 187.54688 60.99479Q187.04688 61.55729 187.04688 62.791664Q187.04688 64.05729 187.53125 64.61979Q188.01562 65.18229 188.78125 65.18229Q189.40625 65.18229 189.8125 64.80729Q190.23438 64.43229 190.35938 63.635414ZM192.29688 65.916664L192.29688 59.697914L193.23438 59.697914L193.23438 60.572914Q193.53125 60.104164 194.01562 59.83854Q194.5 59.55729 195.125 59.55729Q195.8125 59.55729 196.25 59.83854Q196.70312 60.11979 196.875 60.635414Q197.625 59.55729 198.79688 59.55729Q199.73438 59.55729 200.21875 60.072914Q200.71875 60.572914 200.71875 61.65104L200.71875 65.916664L199.67188 65.916664L199.67188 61.99479Q199.67188 61.36979 199.5625 61.08854Q199.46875 60.80729 199.20312 60.635414Q198.9375 60.46354 198.5625 60.46354Q197.90625 60.46354 197.46875 60.90104Q197.04688 61.33854 197.04688 62.30729L197.04688 65.916664L195.98438 65.916664L195.98438 61.86979Q195.98438 61.166664 195.71875 60.822914Q195.46875 60.46354 194.89062 60.46354Q194.4375 60.46354 194.0625 60.697914Q193.6875 60.93229 193.51562 61.385414Q193.34375 61.83854 193.34375 62.68229L193.34375 65.916664L192.29688 65.916664ZM206.32812 65.916664L206.32812 65.135414Q205.73438 66.05729 204.59375 66.05729Q203.84375 66.05729 203.21875 65.65104Q202.59375 65.229164 202.25 64.49479Q201.90625 63.760414 201.90625 62.80729Q201.90625 61.885414 202.21875 61.11979Q202.53125 60.354164 203.15625 59.96354Q203.78125 59.55729 204.54688 59.55729Q205.10938 59.55729 205.54688 59.791664Q205.98438 60.02604 206.26562 60.40104L206.26562 57.322914L207.3125 57.322914L207.3125 65.916664L206.32812 65.916664ZM203.0 62.80729Q203.0 64.010414 203.5 64.604164Q204.0 65.18229 204.6875 65.18229Q205.375 65.18229 205.85938 64.61979Q206.34375 64.05729 206.34375 62.90104Q206.34375 61.61979 205.84375 61.02604Q205.35938 60.43229 204.64062 60.43229Q203.9375 60.43229 203.46875 61.010414Q203.0 61.572914 203.0 62.80729ZM208.875 64.05729L209.90625 63.90104Q210.0 64.52604 210.39062 64.854164Q210.79688 65.18229 211.53125 65.18229Q212.25 65.18229 212.59375 64.90104Q212.95312 64.604164 212.95312 64.197914Q212.95312 63.83854 212.64062 63.635414Q212.42188 63.49479 211.5625 63.27604Q210.40625 62.979164 209.95312 62.77604Q209.51562 62.55729 209.28125 62.18229Q209.04688 61.80729 209.04688 61.33854Q209.04688 60.93229 209.23438 60.572914Q209.42188 60.21354 209.75 59.979164Q210.0 59.80729 210.42188 59.68229Q210.84375 59.55729 211.34375 59.55729Q212.0625 59.55729 212.60938 59.77604Q213.17188 59.979164 213.4375 60.33854Q213.70312 60.697914 213.79688 61.291664L212.76562 61.43229Q212.70312 60.96354 212.35938 60.697914Q212.03125 60.416664 211.40625 60.416664Q210.6875 60.416664 210.375 60.666664Q210.0625 60.90104 210.0625 61.229164Q210.0625 61.43229 210.1875 61.58854Q210.32812 61.760414 210.59375 61.86979Q210.75 61.93229 211.53125 62.135414Q212.65625 62.447914 213.09375 62.635414Q213.53125 62.822914 213.78125 63.18229Q214.03125 63.541664 214.03125 64.08854Q214.03125 64.61979 213.71875 65.08854Q213.42188 65.541664 212.84375 65.80729Q212.26562 66.05729 211.53125 66.05729Q210.3125 66.05729 209.67188 65.55729Q209.04688 65.041664 208.875 64.05729Z" fill-rule="nonzero"/><path stroke="#ea4335" stroke-width="4.0" stroke-linecap="butt" d="M230.5 61.916668L242.5 61.916668" fill-rule="nonzero"/><path fill="#1a1a1a" d="M251.0 63.65104L252.0625 63.510414Q252.23438 64.40104 252.67188 64.80729Q253.10938 65.197914 253.73438 65.197914Q254.48438 65.197914 255.0 64.68229Q255.51562 64.166664 255.51562 63.40104Q255.51562 62.68229 255.03125 62.21354Q254.5625 61.729164 253.82812 61.729164Q253.53125 61.729164 253.07812 61.854164L253.20312 60.916664Q253.3125 60.93229 253.375 60.93229Q254.04688 60.93229 254.57812 60.58854Q255.125 60.229164 255.125 59.49479Q255.125 58.916664 254.73438 58.541664Q254.34375 58.15104 253.71875 58.15104Q253.10938 58.15104 252.6875 58.541664Q252.28125 58.93229 252.17188 59.697914L251.10938 59.510414Q251.29688 58.46354 251.98438 57.885414Q252.67188 57.291664 253.6875 57.291664Q254.39062 57.291664 254.98438 57.604164Q255.57812 57.90104 255.89062 58.416664Q256.20312 58.93229 256.20312 59.52604Q256.20312 60.072914 255.90625 60.541664Q255.60938 60.99479 255.03125 61.260414Q255.78125 61.43229 256.20312 61.99479Q256.625 62.541664 256.625 63.385414Q256.625 64.510414 255.79688 65.291664Q254.98438 66.072914 253.73438 66.072914Q252.60938 66.072914 251.85938 65.40104Q251.10938 64.71354 251.0 63.65104ZM262.45312 62.541664L262.45312 61.541664L266.07812 61.52604L266.07812 64.71354Q265.25 65.385414 264.35938 65.729164Q263.46875 66.05729 262.53125 66.05729Q261.26562 66.05729 260.21875 65.52604Q259.1875 64.979164 258.65625 63.96354Q258.14062 62.93229 258.14062 61.666664Q258.14062 60.40104 258.65625 59.322914Q259.1875 58.229164 260.17188 57.71354Q261.15625 57.18229 262.4375 57.18229Q263.375 57.18229 264.125 57.479164Q264.875 57.77604 265.29688 58.322914Q265.73438 58.854164 265.95312 59.729164L264.9375 60.010414Q264.73438 59.354164 264.4375 58.979164Q264.15625 58.604164 263.625 58.385414Q263.09375 58.15104 262.45312 58.15104Q261.67188 58.15104 261.09375 58.385414Q260.53125 58.61979 260.17188 59.010414Q259.82812 59.40104 259.64062 59.86979Q259.3125 60.666664 259.3125 61.58854Q259.3125 62.74479 259.70312 63.52604Q260.10938 64.291664 260.85938 64.666664Q261.60938 65.041664 262.46875 65.041664Q263.20312 65.041664 263.90625 64.760414Q264.60938 64.46354 264.96875 64.15104L264.96875 62.541664L262.45312 62.541664ZM271.54688 63.916664L272.64062 64.041664Q272.39062 64.99479 271.6875 65.52604Q270.98438 66.05729 269.90625 66.05729Q268.54688 66.05729 267.73438 65.21354Q266.9375 64.36979 266.9375 62.854164Q266.9375 61.291664 267.75 60.43229Q268.5625 59.55729 269.84375 59.55729Q271.09375 59.55729 271.875 60.40104Q272.67188 61.24479 272.67188 62.791664Q272.67188 62.885414 272.67188 63.072914L268.03125 63.072914Q268.09375 64.104164 268.60938 64.65104Q269.125 65.18229 269.90625 65.18229Q270.48438 65.18229 270.89062 64.885414Q271.3125 64.572914 271.54688 63.916664ZM268.09375 62.21354L271.5625 62.21354Q271.5 61.416664 271.17188 61.02604Q270.65625 60.416664 269.85938 60.416664Q269.125 60.416664 268.625 60.90104Q268.14062 61.385414 268.09375 62.21354ZM274.29688 65.916664L274.29688 59.697914L275.23438 59.697914L275.23438 60.572914Q275.92188 59.55729 277.21875 59.55729Q277.78125 59.55729 278.25 59.760414Q278.73438 59.96354 278.96875 60.291664Q279.20312 60.61979 279.29688 61.05729Q279.34375 61.354164 279.34375 62.08854L279.34375 65.916664L278.29688 65.916664L278.29688 62.135414Q278.29688 61.479164 278.17188 61.166664Q278.04688 60.854164 277.73438 60.666664Q277.42188 60.46354 277.0 60.46354Q276.32812 60.46354 275.82812 60.90104Q275.34375 61.322914 275.34375 62.510414L275.34375 65.916664L274.29688 65.916664ZM283.48438 65.916664L286.78125 57.322914L288.0 57.322914L291.51562 65.916664L290.23438 65.916664L289.21875 63.30729L285.64062 63.30729L284.6875 65.916664L283.48438 65.916664ZM285.96875 62.385414L288.875 62.385414L287.98438 60.010414Q287.5625 58.93229 287.375 58.229164Q287.20312 59.05729 286.90625 59.86979L285.96875 62.385414ZM292.42188 65.916664L292.42188 57.322914L295.67188 57.322914Q296.51562 57.322914 296.96875 57.40104Q297.60938 57.510414 298.03125 57.80729Q298.46875 58.104164 298.71875 58.635414Q298.98438 59.166664 298.98438 59.80729Q298.98438 60.90104 298.28125 61.666664Q297.59375 62.416664 295.76562 62.416664L293.5625 62.416664L293.5625 65.916664L292.42188 65.916664ZM293.5625 61.416664L295.78125 61.416664Q296.89062 61.416664 297.34375 61.010414Q297.8125 60.58854 297.8125 59.83854Q297.8125 59.30729 297.53125 58.93229Q297.26562 58.541664 296.82812 58.416664Q296.53125 58.33854 295.76562 58.33854L293.5625 58.33854L293.5625 61.416664ZM300.625 65.916664L300.625 57.322914L301.75 57.322914L301.75 65.916664L300.625 65.916664Z" fill-rule="nonzero"/><path stroke="#fbbc04" stroke-width="4.0" stroke-linecap="butt" d="M318.5 61.916668L330.5 61.916668" fill-rule="nonzero"/><path fill="#1a1a1a" d="M339.0 63.65104L340.0625 63.510414Q340.23438 64.40104 340.67188 64.80729Q341.10938 65.197914 341.73438 65.197914Q342.48438 65.197914 343.0 64.68229Q343.51562 64.166664 343.51562 63.40104Q343.51562 62.68229 343.03125 62.21354Q342.5625 61.729164 341.82812 61.729164Q341.53125 61.729164 341.07812 61.854164L341.20312 60.916664Q341.3125 60.93229 341.375 60.93229Q342.04688 60.93229 342.57812 60.58854Q343.125 60.229164 343.125 59.49479Q343.125 58.916664 342.73438 58.541664Q342.34375 58.15104 341.71875 58.15104Q341.10938 58.15104 340.6875 58.541664Q340.28125 58.93229 340.17188 59.697914L339.10938 59.510414Q339.29688 58.46354 339.98438 57.885414Q340.67188 57.291664 341.6875 57.291664Q342.39062 57.291664 342.98438 57.604164Q343.57812 57.90104 343.89062 58.416664Q344.20312 58.93229 344.20312 59.52604Q344.20312 60.072914 343.90625 60.541664Q343.60938 60.99479 343.03125 61.260414Q343.78125 61.43229 344.20312 61.99479Q344.625 62.541664 344.625 63.385414Q344.625 64.510414 343.79688 65.291664Q342.98438 66.072914 341.73438 66.072914Q340.60938 66.072914 339.85938 65.40104Q339.10938 64.71354 339.0 63.65104ZM350.45312 62.541664L350.45312 61.541664L354.07812 61.52604L354.07812 64.71354Q353.25 65.385414 352.35938 65.729164Q351.46875 66.05729 350.53125 66.05729Q349.26562 66.05729 348.21875 65.52604Q347.1875 64.979164 346.65625 63.96354Q346.14062 62.93229 346.14062 61.666664Q346.14062 60.40104 346.65625 59.322914Q347.1875 58.229164 348.17188 57.71354Q349.15625 57.18229 350.4375 57.18229Q351.375 57.18229 352.125 57.479164Q352.875 57.77604 353.29688 58.322914Q353.73438 58.854164 353.95312 59.729164L352.9375 60.010414Q352.73438 59.354164 352.4375 58.979164Q352.15625 58.604164 351.625 58.385414Q351.09375 58.15104 350.45312 58.15104Q349.67188 58.15104 349.09375 58.385414Q348.53125 58.61979 348.17188 59.010414Q347.82812 59.40104 347.64062 59.86979Q347.3125 60.666664 347.3125 61.58854Q347.3125 62.74479 347.70312 63.52604Q348.10938 64.291664 348.85938 64.666664Q349.60938 65.041664 350.46875 65.041664Q351.20312 65.041664 351.90625 64.760414Q352.60938 64.46354 352.96875 64.15104L352.96875 62.541664L350.45312 62.541664ZM359.54688 63.916664L360.64062 64.041664Q360.39062 64.99479 359.6875 65.52604Q358.98438 66.05729 357.90625 66.05729Q356.54688 66.05729 355.73438 65.21354Q354.9375 64.36979 354.9375 62.854164Q354.9375 61.291664 355.75 60.43229Q356.5625 59.55729 357.84375 59.55729Q359.09375 59.55729 359.875 60.40104Q360.67188 61.24479 360.67188 62.791664Q360.67188 62.885414 360.67188 63.072914L356.03125 63.072914Q356.09375 64.104164 356.60938 64.65104Q357.125 65.18229 357.90625 65.18229Q358.48438 65.18229 358.89062 64.885414Q359.3125 64.572914 359.54688 63.916664ZM356.09375 62.21354L359.5625 62.21354Q359.5 61.416664 359.17188 61.02604Q358.65625 60.416664 357.85938 60.416664Q357.125 60.416664 356.625 60.90104Q356.14062 61.385414 356.09375 62.21354ZM362.29688 65.916664L362.29688 59.697914L363.23438 59.697914L363.23438 60.572914Q363.92188 59.55729 365.21875 59.55729Q365.78125 59.55729 366.25 59.760414Q366.73438 59.96354 366.96875 60.291664Q367.20312 60.61979 367.29688 61.05729Q367.34375 61.354164 367.34375 62.08854L367.34375 65.916664L366.29688 65.916664L366.29688 62.135414Q366.29688 61.479164 366.17188 61.166664Q366.04688 60.854164 365.73438 60.666664Q365.42188 60.46354 365.0 60.46354Q364.32812 60.46354 363.82812 60.90104Q363.34375 61.322914 363.34375 62.510414L363.34375 65.916664L362.29688 65.916664ZM371.48438 65.916664L374.78125 57.322914L376.0 57.322914L379.51562 65.916664L378.23438 65.916664L377.21875 63.30729L373.64062 63.30729L372.6875 65.916664L371.48438 65.916664ZM373.96875 62.385414L376.875 62.385414L375.98438 60.010414Q375.5625 58.93229 375.375 58.229164Q375.20312 59.05729 374.90625 59.86979L373.96875 62.385414ZM380.42188 65.916664L380.42188 57.322914L383.67188 57.322914Q384.51562 57.322914 384.96875 57.40104Q385.60938 57.510414 386.03125 57.80729Q386.46875 58.104164 386.71875 58.635414Q386.98438 59.166664 386.98438 59.80729Q386.98438 60.90104 386.28125 61.666664Q385.59375 62.416664 383.76562 62.416664L381.5625 62.416664L381.5625 65.916664L380.42188 65.916664ZM381.5625 61.416664L383.78125 61.416664Q384.89062 61.416664 385.34375 61.010414Q385.8125 60.58854 385.8125 59.83854Q385.8125 59.30729 385.53125 58.93229Q385.26562 58.541664 384.82812 58.416664Q384.53125 58.33854 383.76562 58.33854L381.5625 58.33854L381.5625 61.416664ZM388.625 65.916664L388.625 57.322914L389.75 57.322914L389.75 65.916664L388.625 65.916664ZM394.29688 68.30729L394.29688 59.697914L395.25 59.697914L395.25 60.49479Q395.59375 60.02604 396.01562 59.791664Q396.45312 59.55729 397.0625 59.55729Q397.85938 59.55729 398.46875 59.96354Q399.07812 60.36979 399.375 61.11979Q399.6875 61.86979 399.6875 62.760414Q399.6875 63.71354 399.34375 64.479164Q399.01562 65.24479 398.35938 65.65104Q397.70312 66.05729 396.98438 66.05729Q396.45312 66.05729 396.03125 65.83854Q395.60938 65.604164 395.34375 65.27604L395.34375 68.30729L394.29688 68.30729ZM395.25 62.83854Q395.25 64.041664 395.73438 64.61979Q396.21875 65.18229 396.90625 65.18229Q397.60938 65.18229 398.10938 64.58854Q398.60938 63.99479 398.60938 62.74479Q398.60938 61.55729 398.125 60.979164Q397.64062 60.385414 396.95312 60.385414Q396.28125 60.385414 395.76562 61.010414Q395.25 61.635414 395.25 62.83854ZM401.28125 65.916664L401.28125 59.697914L402.23438 59.697914L402.23438 60.635414Q402.59375 59.979164 402.89062 59.77604Q403.20312 59.55729 403.57812 59.55729Q404.10938 59.55729 404.65625 59.885414L404.29688 60.86979Q403.90625 60.635414 403.53125 60.635414Q403.17188 60.635414 402.89062 60.854164Q402.625 61.05729 402.51562 61.43229Q402.32812 61.99479 402.32812 62.65104L402.32812 65.916664L401.28125 65.916664ZM409.54688 63.916664L410.64062 64.041664Q410.39062 64.99479 409.6875 65.52604Q408.98438 66.05729 407.90625 66.05729Q406.54688 66.05729 405.73438 65.21354Q404.9375 64.36979 404.9375 62.854164Q404.9375 61.291664 405.75 60.43229Q406.5625 59.55729 407.84375 59.55729Q409.09375 59.55729 409.875 60.40104Q410.67188 61.24479 410.67188 62.791664Q410.67188 62.885414 410.67188 63.072914L406.03125 63.072914Q406.09375 64.104164 406.60938 64.65104Q407.125 65.18229 407.90625 65.18229Q408.48438 65.18229 408.89062 64.885414Q409.3125 64.572914 409.54688 63.916664ZM406.09375 62.21354L409.5625 62.21354Q409.5 61.416664 409.17188 61.02604Q408.65625 60.416664 407.85938 60.416664Q407.125 60.416664 406.625 60.90104Q406.14062 61.385414 406.09375 62.21354ZM416.35938 63.635414L417.39062 63.77604Q417.21875 64.83854 416.51562 65.447914Q415.8125 66.05729 414.79688 66.05729Q413.51562 66.05729 412.73438 65.229164Q411.96875 64.385414 411.96875 62.822914Q411.96875 61.822914 412.29688 61.072914Q412.64062 60.30729 413.3125 59.93229Q414.0 59.55729 414.8125 59.55729Q415.8125 59.55729 416.45312 60.072914Q417.10938 60.572914 417.29688 61.52604L416.26562 61.68229Q416.125 61.05729 415.75 60.74479Q415.375 60.416664 414.84375 60.416664Q414.04688 60.416664 413.54688 60.99479Q413.04688 61.55729 413.04688 62.791664Q413.04688 64.05729 413.53125 64.61979Q414.01562 65.18229 414.78125 65.18229Q415.40625 65.18229 415.8125 64.80729Q416.23438 64.43229 416.35938 63.635414ZM422.35938 65.15104Q421.76562 65.65104 421.21875 65.854164Q420.6875 66.05729 420.0625 66.05729Q419.03125 66.05729 418.48438 65.55729Q417.9375 65.05729 417.9375 64.27604Q417.9375 63.822914 418.14062 63.447914Q418.34375 63.05729 418.6875 62.83854Q419.03125 62.604164 419.45312 62.49479Q419.75 62.40104 420.39062 62.322914Q421.65625 62.18229 422.26562 61.96354Q422.26562 61.74479 422.26562 61.697914Q422.26562 61.041664 421.96875 60.77604Q421.5625 60.43229 420.76562 60.43229Q420.03125 60.43229 419.67188 60.697914Q419.3125 60.947914 419.14062 61.604164L418.10938 61.46354Q418.25 60.80729 418.57812 60.40104Q418.90625 59.99479 419.51562 59.77604Q420.125 59.55729 420.92188 59.55729Q421.71875 59.55729 422.21875 59.74479Q422.71875 59.93229 422.95312 60.21354Q423.1875 60.49479 423.28125 60.93229Q423.32812 61.197914 423.32812 61.90104L423.32812 63.30729Q423.32812 64.77604 423.39062 65.166664Q423.46875 65.55729 423.67188 65.916664L422.5625 65.916664Q422.40625 65.58854 422.35938 65.15104ZM422.26562 62.791664Q421.6875 63.02604 420.54688 63.197914Q419.89062 63.291664 419.625 63.416664Q419.35938 63.52604 419.20312 63.74479Q419.0625 63.96354 419.0625 64.24479Q419.0625 64.666664 419.375 64.947914Q419.70312 65.229164 420.3125 65.229164Q420.92188 65.229164 421.39062 64.96354Q421.875 64.697914 422.09375 64.229164Q422.26562 63.86979 422.26562 63.18229L422.26562 62.791664ZM425.26562 65.916664L425.26562 57.322914L426.32812 57.322914L426.32812 65.916664L425.26562 65.916664ZM432.35938 63.635414L433.39062 63.77604Q433.21875 64.83854 432.51562 65.447914Q431.8125 66.05729 430.79688 66.05729Q429.51562 66.05729 428.73438 65.229164Q427.96875 64.385414 427.96875 62.822914Q427.96875 61.822914 428.29688 61.072914Q428.64062 60.30729 429.3125 59.93229Q430.0 59.55729 430.8125 59.55729Q431.8125 59.55729 432.45312 60.072914Q433.10938 60.572914 433.29688 61.52604L432.26562 61.68229Q432.125 61.05729 431.75 60.74479Q431.375 60.416664 430.84375 60.416664Q430.04688 60.416664 429.54688 60.99479Q429.04688 61.55729 429.04688 62.791664Q429.04688 64.05729 429.53125 64.61979Q430.01562 65.18229 430.78125 65.18229Q431.40625 65.18229 431.8125 64.80729Q432.23438 64.43229 432.35938 63.635414ZM438.375 65.916664L438.375 64.99479Q437.64062 66.05729 436.39062 66.05729Q435.84375 66.05729 435.35938 65.854164Q434.89062 65.635414 434.65625 65.322914Q434.42188 64.99479 434.32812 64.52604Q434.26562 64.229164 434.26562 63.541664L434.26562 59.697914L435.32812 59.697914L435.32812 63.15104Q435.32812 63.96354 435.39062 64.260414Q435.48438 64.666664 435.79688 64.916664Q436.125 65.15104 436.60938 65.15104Q437.07812 65.15104 437.48438 64.916664Q437.90625 64.666664 438.07812 64.24479Q438.26562 63.822914 438.26562 63.02604L438.26562 59.697914L439.3125 59.697914L439.3125 65.916664L438.375 65.916664ZM441.26562 65.916664L441.26562 57.322914L442.32812 57.322914L442.32812 65.916664L441.26562 65.916664ZM448.35938 65.15104Q447.76562 65.65104 447.21875 65.854164Q446.6875 66.05729 446.0625 66.05729Q445.03125 66.05729 444.48438 65.55729Q443.9375 65.05729 443.9375 64.27604Q443.9375 63.822914 444.14062 63.447914Q444.34375 63.05729 444.6875 62.83854Q445.03125 62.604164 445.45312 62.49479Q445.75 62.40104 446.39062 62.322914Q447.65625 62.18229 448.26562 61.96354Q448.26562 61.74479 448.26562 61.697914Q448.26562 61.041664 447.96875 60.77604Q447.5625 60.43229 446.76562 60.43229Q446.03125 60.43229 445.67188 60.697914Q445.3125 60.947914 445.14062 61.604164L444.10938 61.46354Q444.25 60.80729 444.57812 60.40104Q444.90625 59.99479 445.51562 59.77604Q446.125 59.55729 446.92188 59.55729Q447.71875 59.55729 448.21875 59.74479Q448.71875 59.93229 448.95312 60.21354Q449.1875 60.49479 449.28125 60.93229Q449.32812 61.197914 449.32812 61.90104L449.32812 63.30729Q449.32812 64.77604 449.39062 65.166664Q449.46875 65.55729 449.67188 65.916664L448.5625 65.916664Q448.40625 65.58854 448.35938 65.15104ZM448.26562 62.791664Q447.6875 63.02604 446.54688 63.197914Q445.89062 63.291664 445.625 63.416664Q445.35938 63.52604 445.20312 63.74479Q445.0625 63.96354 445.0625 64.24479Q445.0625 64.666664 445.375 64.947914Q445.70312 65.229164 446.3125 65.229164Q446.92188 65.229164 447.39062 64.96354Q447.875 64.697914 448.09375 64.229164Q448.26562 63.86979 448.26562 63.18229L448.26562 62.791664ZM453.59375 64.979164L453.75 65.90104Q453.29688 65.99479 452.95312 65.99479Q452.375 65.99479 452.0625 65.822914Q451.75 65.635414 451.60938 65.33854Q451.48438 65.041664 451.48438 64.08854L451.48438 60.510414L450.71875 60.510414L450.71875 59.697914L451.48438 59.697914L451.48438 58.15104L452.53125 57.52604L452.53125 59.697914L453.59375 59.697914L453.59375 60.510414L452.53125 60.510414L452.53125 64.15104Q452.53125 64.604164 452.57812 64.729164Q452.64062 64.854164 452.76562 64.93229Q452.89062 65.010414 453.125 65.010414Q453.3125 65.010414 453.59375 64.979164ZM458.54688 63.916664L459.64062 64.041664Q459.39062 64.99479 458.6875 65.52604Q457.98438 66.05729 456.90625 66.05729Q455.54688 66.05729 454.73438 65.21354Q453.9375 64.36979 453.9375 62.854164Q453.9375 61.291664 454.75 60.43229Q455.5625 59.55729 456.84375 59.55729Q458.09375 59.55729 458.875 60.40104Q459.67188 61.24479 459.67188 62.791664Q459.67188 62.885414 459.67188 63.072914L455.03125 63.072914Q455.09375 64.104164 455.60938 64.65104Q456.125 65.18229 456.90625 65.18229Q457.48438 65.18229 457.89062 64.885414Q458.3125 64.572914 458.54688 63.916664ZM455.09375 62.21354L458.5625 62.21354Q458.5 61.416664 458.17188 61.02604Q457.65625 60.416664 456.85938 60.416664Q456.125 60.416664 455.625 60.90104Q455.14062 61.385414 455.09375 62.21354ZM465.32812 65.916664L465.32812 65.135414Q464.73438 66.05729 463.59375 66.05729Q462.84375 66.05729 462.21875 65.65104Q461.59375 65.229164 461.25 64.49479Q460.90625 63.760414 460.90625 62.80729Q460.90625 61.885414 461.21875 61.11979Q461.53125 60.354164 462.15625 59.96354Q462.78125 59.55729 463.54688 59.55729Q464.10938 59.55729 464.54688 59.791664Q464.98438 60.02604 465.26562 60.40104L465.26562 57.322914L466.3125 57.322914L466.3125 65.916664L465.32812 65.916664ZM462.0 62.80729Q462.0 64.010414 462.5 64.604164Q463.0 65.18229 463.6875 65.18229Q464.375 65.18229 464.85938 64.61979Q465.34375 64.05729 465.34375 62.90104Q465.34375 61.61979 464.84375 61.02604Q464.35938 60.43229 463.64062 60.43229Q462.9375 60.43229 462.46875 61.010414Q462.0 61.572914 462.0 62.80729Z" fill-rule="nonzero"/><path fill="#757575" d="M19.45625 32.95625L21.2375 32.8Q21.3625 33.8625 21.815624 34.55Q22.284374 35.2375 23.253124 35.675Q24.2375 36.096874 25.471874 36.096874Q26.55 36.096874 27.378124 35.784374Q28.20625 35.45625 28.6125 34.89375Q29.01875 34.33125 29.01875 33.659374Q29.01875 32.9875 28.628124 32.4875Q28.2375 31.9875 27.346874 31.64375Q26.76875 31.409374 24.784374 30.940624Q22.815624 30.471874 22.034374 30.05Q21.003124 29.51875 20.503124 28.721874Q20.003124 27.925 20.003124 26.940624Q20.003124 25.846874 20.6125 24.909374Q21.221874 23.971874 22.409374 23.4875Q23.596874 22.9875 25.034374 22.9875Q26.628124 22.9875 27.846874 23.503124Q29.065624 24.01875 29.70625 25.01875Q30.3625 26.003124 30.409374 27.26875L28.596874 27.409374Q28.45625 26.05 27.6125 25.3625Q26.76875 24.659374 25.1125 24.659374Q23.39375 24.659374 22.596874 25.3Q21.815624 25.925 21.815624 26.8Q21.815624 27.58125 22.378124 28.08125Q22.925 28.58125 25.2375 29.096874Q27.55 29.6125 28.409374 30.003124Q29.659374 30.58125 30.253124 31.471874Q30.846874 32.346874 30.846874 33.503124Q30.846874 34.64375 30.190624 35.659374Q29.534374 36.675 28.3 37.2375Q27.08125 37.8 25.55 37.8Q23.6125 37.8 22.3 37.2375Q20.9875 36.659374 20.2375 35.51875Q19.4875 34.378124 19.45625 32.95625ZM32.8625 41.51875L32.8625 27.175L34.471874 27.175L34.471874 28.51875Q35.034374 27.7375 35.7375 27.346874Q36.45625 26.940624 37.471874 26.940624Q38.8 26.940624 39.815624 27.628124Q40.83125 28.315624 41.346874 29.565624Q41.878124 30.8 41.878124 32.284374Q41.878124 33.878124 41.3 35.159374Q40.7375 36.425 39.64375 37.1125Q38.55 37.784374 37.346874 37.784374Q36.471874 37.784374 35.76875 37.409374Q35.08125 37.034374 34.628124 36.471874L34.628124 41.51875L32.8625 41.51875ZM34.45625 32.425Q34.45625 34.425 35.26875 35.378124Q36.08125 36.33125 37.2375 36.33125Q38.409374 36.33125 39.2375 35.346874Q40.08125 34.3625 40.08125 32.26875Q40.08125 30.3 39.253124 29.315624Q38.440624 28.315624 37.315624 28.315624Q36.190624 28.315624 35.315624 29.378124Q34.45625 30.425 34.45625 32.425ZM50.971874 34.20625L52.784374 34.440624Q52.3625 36.01875 51.190624 36.909374Q50.034374 37.784374 48.221874 37.784374Q45.95625 37.784374 44.6125 36.39375Q43.284374 34.9875 43.284374 32.45625Q43.284374 29.83125 44.628124 28.39375Q45.971874 26.940624 48.128124 26.940624Q50.20625 26.940624 51.51875 28.3625Q52.846874 29.76875 52.846874 32.346874Q52.846874 32.503124 52.83125 32.815624L45.096874 32.815624Q45.190624 34.51875 46.065624 35.425Q46.940624 36.33125 48.2375 36.33125Q49.20625 36.33125 49.878124 35.83125Q50.565624 35.315624 50.971874 34.20625ZM45.190624 31.3625L50.9875 31.3625Q50.878124 30.065624 50.33125 29.409374Q49.4875 28.39375 48.14375 28.39375Q46.940624 28.39375 46.1125 29.20625Q45.284374 30.003124 45.190624 31.3625ZM61.971874 34.20625L63.784374 34.440624Q63.3625 36.01875 62.190624 36.909374Q61.034374 37.784374 59.221874 37.784374Q56.95625 37.784374 55.6125 36.39375Q54.284374 34.9875 54.284374 32.45625Q54.284374 29.83125 55.628124 28.39375Q56.971874 26.940624 59.128124 26.940624Q61.20625 26.940624 62.51875 28.3625Q63.846874 29.76875 63.846874 32.346874Q63.846874 32.503124 63.83125 32.815624L56.096874 32.815624Q56.190624 34.51875 57.065624 35.425Q57.940624 36.33125 59.2375 36.33125Q60.20625 36.33125 60.878124 35.83125Q61.565624 35.315624 61.971874 34.20625ZM56.190624 31.3625L61.9875 31.3625Q61.878124 30.065624 61.33125 29.409374Q60.4875 28.39375 59.14375 28.39375Q57.940624 28.39375 57.1125 29.20625Q56.284374 30.003124 56.190624 31.3625ZM72.59688 37.55L72.59688 36.2375Q71.6125 37.784374 69.69063 37.784374Q68.45625 37.784374 67.40938 37.096874Q66.37813 36.409374 65.8 35.190624Q65.2375 33.971874 65.2375 32.378124Q65.2375 30.815624 65.75313 29.55Q66.26875 28.284374 67.3 27.6125Q68.34688 26.940624 69.6125 26.940624Q70.55 26.940624 71.28438 27.346874Q72.01875 27.7375 72.4875 28.3625L72.4875 23.2375L74.22188 23.2375L74.22188 37.55L72.59688 37.55ZM67.03438 32.378124Q67.03438 34.3625 67.87813 35.346874Q68.72188 36.33125 69.8625 36.33125Q71.01875 36.33125 71.81563 35.39375Q72.62813 34.45625 72.62813 32.51875Q72.62813 30.39375 71.8 29.39375Q70.9875 28.39375 69.78438 28.39375Q68.6125 28.39375 67.81563 29.3625Q67.03438 30.315624 67.03438 32.378124ZM89.64375 33.753124L91.3625 33.971874Q91.08125 35.76875 89.90938 36.784374Q88.75313 37.784374 87.05 37.784374Q84.925 37.784374 83.62813 36.39375Q82.33125 35.003124 82.33125 32.409374Q82.33125 30.721874 82.87813 29.471874Q83.44063 28.20625 84.58125 27.58125Q85.72188 26.940624 87.06563 26.940624Q88.75313 26.940624 89.81563 27.8Q90.89375 28.659374 91.20625 30.221874L89.4875 30.4875Q89.25313 29.440624 88.62813 28.925Q88.00313 28.39375 87.12813 28.39375Q85.8 28.39375 84.97188 29.346874Q84.14375 30.3 84.14375 32.346874Q84.14375 34.440624 84.94063 35.39375Q85.7375 36.33125 87.03438 36.33125Q88.06563 36.33125 88.75313 35.70625Q89.45625 35.065624 89.64375 33.753124ZM92.22188 32.3625Q92.22188 29.4875 93.81563 28.096874Q95.15938 26.940624 97.08125 26.940624Q99.22188 26.940624 100.56563 28.346874Q101.925 29.753124 101.925 32.221874Q101.925 34.221874 101.33125 35.378124Q100.7375 36.51875 99.58125 37.159374Q98.44063 37.784374 97.08125 37.784374Q94.89375 37.784374 93.55 36.39375Q92.22188 34.9875 92.22188 32.3625ZM94.01875 32.3625Q94.01875 34.3625 94.87813 35.346874Q95.75313 36.33125 97.08125 36.33125Q98.39375 36.33125 99.25313 35.346874Q100.12813 34.346874 100.12813 32.3Q100.12813 30.378124 99.25313 29.39375Q98.37813 28.39375 97.08125 28.39375Q95.75313 28.39375 94.87813 29.39375Q94.01875 30.378124 94.01875 32.3625ZM103.8625 37.55L103.8625 27.175L105.44063 27.175L105.44063 28.628124Q105.925 27.878124 106.7375 27.409374Q107.55 26.940624 108.58125 26.940624Q109.7375 26.940624 110.47188 27.425Q111.20625 27.89375 111.51875 28.753124Q112.75313 26.940624 114.72188 26.940624Q116.26875 26.940624 117.09688 27.8Q117.925 28.659374 117.925 30.425L117.925 37.55L116.175 37.55L116.175 31.01875Q116.175 29.95625 116.00313 29.503124Q115.83125 29.034374 115.37813 28.753124Q114.94063 28.471874 114.33125 28.471874Q113.2375 28.471874 112.50313 29.20625Q111.78438 29.925 111.78438 31.51875L111.78438 37.55L110.03438 37.55L110.03438 30.815624Q110.03438 29.64375 109.59688 29.065624Q109.175 28.471874 108.19063 28.471874Q107.45625 28.471874 106.81563 28.8625Q106.19063 29.253124 105.90938 30.003124Q105.62813 30.753124 105.62813 32.175L105.62813 37.55L103.8625 37.55ZM120.8625 41.51875L120.8625 27.175L122.47188 27.175L122.47188 28.51875Q123.03438 27.7375 123.7375 27.346874Q124.45625 26.940624 125.47188 26.940624Q126.8 26.940624 127.81563 27.628124Q128.83125 28.315624 129.34688 29.565624Q129.87813 30.8 129.87813 32.284374Q129.87813 33.878124 129.3 35.159374Q128.7375 36.425 127.64375 37.1125Q126.55 37.784374 125.34688 37.784374Q124.47188 37.784374 123.76875 37.409374Q123.08125 37.034374 122.62813 36.471874L122.62813 41.51875L120.8625 41.51875ZM122.45625 32.425Q122.45625 34.425 123.26875 35.378124Q124.08125 36.33125 125.2375 36.33125Q126.40938 36.33125 127.2375 35.346874Q128.08125 34.3625 128.08125 32.26875Q128.08125 30.3 127.25313 29.315624Q126.44063 28.315624 125.31563 28.315624Q124.19063 28.315624 123.31563 29.378124Q122.45625 30.425 122.45625 32.425ZM138.64375 36.26875Q137.65938 37.096874 136.75313 37.440624Q135.84688 37.784374 134.81563 37.784374Q133.1125 37.784374 132.19063 36.95625Q131.26875 36.1125 131.26875 34.815624Q131.26875 34.05 131.6125 33.425Q131.97188 32.8 132.53438 32.425Q133.09688 32.034374 133.8 31.83125Q134.31563 31.70625 135.3625 31.565624Q137.4875 31.315624 138.4875 30.971874Q138.50313 30.6125 138.50313 30.503124Q138.50313 29.440624 138.00313 28.9875Q137.33125 28.39375 136.00313 28.39375Q134.75313 28.39375 134.15938 28.83125Q133.58125 29.26875 133.3 30.378124L131.58125 30.14375Q131.81563 29.034374 132.34688 28.3625Q132.87813 27.675 133.89375 27.315624Q134.90938 26.940624 136.25313 26.940624Q137.58125 26.940624 138.40938 27.253124Q139.2375 27.565624 139.62813 28.05Q140.01875 28.51875 140.175 29.2375Q140.26875 29.690624 140.26875 30.8625L140.26875 33.20625Q140.26875 35.659374 140.37813 36.315624Q140.4875 36.95625 140.83125 37.55L138.9875 37.55Q138.72188 37.003124 138.64375 36.26875ZM138.4875 32.346874Q137.53438 32.7375 135.6125 33.003124Q134.53438 33.159374 134.08125 33.3625Q133.64375 33.55 133.39375 33.925Q133.14375 34.3 133.14375 34.76875Q133.14375 35.471874 133.675 35.940624Q134.20625 36.409374 135.2375 36.409374Q136.25313 36.409374 137.03438 35.971874Q137.83125 35.51875 138.20625 34.753124Q138.4875 34.14375 138.4875 32.9875L138.4875 32.346874ZM142.84688 37.55L142.84688 27.175L144.425 27.175L144.425 28.753124Q145.03438 27.64375 145.55 27.3Q146.06563 26.940624 146.675 26.940624Q147.56563 26.940624 148.4875 27.503124L147.87813 29.14375Q147.2375 28.753124 146.59688 28.753124Q146.01875 28.753124 145.55 29.1125Q145.09688 29.45625 144.89375 30.065624Q144.6125 31.003124 144.6125 32.1125L144.6125 37.55L142.84688 37.55ZM149.87813 25.253124L149.87813 23.2375L151.64375 23.2375L151.64375 25.253124L149.87813 25.253124ZM149.87813 37.55L149.87813 27.175L151.64375 27.175L151.64375 37.55L149.87813 37.55ZM153.15938 34.45625L154.90938 34.175Q155.05 35.221874 155.72188 35.784374Q156.39375 36.33125 157.59688 36.33125Q158.8 36.33125 159.37813 35.846874Q159.97188 35.346874 159.97188 34.690624Q159.97188 34.096874 159.45625 33.753124Q159.09688 33.51875 157.65938 33.159374Q155.72188 32.659374 154.97188 32.315624Q154.2375 31.95625 153.84688 31.33125Q153.45625 30.690624 153.45625 29.925Q153.45625 29.2375 153.76875 28.64375Q154.09688 28.05 154.64375 27.659374Q155.05 27.3625 155.75313 27.159374Q156.47188 26.940624 157.28438 26.940624Q158.50313 26.940624 159.425 27.3Q160.34688 27.64375 160.78438 28.253124Q161.22188 28.846874 161.39375 29.846874L159.675 30.08125Q159.55 29.284374 158.9875 28.846874Q158.425 28.39375 157.40938 28.39375Q156.19063 28.39375 155.675 28.8Q155.15938 29.190624 155.15938 29.721874Q155.15938 30.065624 155.37813 30.346874Q155.58125 30.628124 156.05 30.815624Q156.31563 30.909374 157.59688 31.253124Q159.47188 31.753124 160.20625 32.08125Q160.94063 32.39375 161.3625 33.003124Q161.78438 33.596874 161.78438 34.503124Q161.78438 35.378124 161.26875 36.159374Q160.75313 36.940624 159.78438 37.3625Q158.81563 37.784374 157.59688 37.784374Q155.58125 37.784374 154.51875 36.940624Q153.45625 36.096874 153.15938 34.45625ZM163.22188 32.3625Q163.22188 29.4875 164.81563 28.096874Q166.15938 26.940624 168.08125 26.940624Q170.22188 26.940624 171.56563 28.346874Q172.925 29.753124 172.925 32.221874Q172.925 34.221874 172.33125 35.378124Q171.7375 36.51875 170.58125 37.159374Q169.44063 37.784374 168.08125 37.784374Q165.89375 37.784374 164.55 36.39375Q163.22188 34.9875 163.22188 32.3625ZM165.01875 32.3625Q165.01875 34.3625 165.87813 35.346874Q166.75313 36.33125 168.08125 36.33125Q169.39375 36.33125 170.25313 35.346874Q171.12813 34.346874 171.12813 32.3Q171.12813 30.378124 170.25313 29.39375Q169.37813 28.39375 168.08125 28.39375Q166.75313 28.39375 165.87813 29.39375Q165.01875 30.378124 165.01875 32.3625ZM174.8625 37.55L174.8625 27.175L176.45625 27.175L176.45625 28.659374Q177.59688 26.940624 179.75313 26.940624Q180.69063 26.940624 181.47188 27.284374Q182.26875 27.6125 182.65938 28.159374Q183.05 28.70625 183.20625 29.45625Q183.3 29.95625 183.3 31.175L183.3 37.55L181.53438 37.55L181.53438 31.2375Q181.53438 30.159374 181.33125 29.628124Q181.12813 29.096874 180.59688 28.784374Q180.08125 28.471874 179.37813 28.471874Q178.25313 28.471874 177.44063 29.190624Q176.62813 29.89375 176.62813 31.878124L176.62813 37.55L174.8625 37.55Z" fill-rule="nonzero"/></svg>